<?xml version="1.0" encoding="UTF-8"?>
<svg version="1.1" xmlns="http://www.w3.org/2000/svg" width="3617" height="3613">
<path d="M0 0 C0.71865234 0.21962402 1.43730469 0.43924805 2.17773438 0.66552734 C23.13450289 7.29308193 38.19832232 20.17275862 48.625 39.4375 C72.50621636 87.43828143 54.3310439 150.50716893 38.38842773 198.2980957 C28.85911673 226.52408838 17.41466168 253.92688524 5 281 C4.56747925 281.94528564 4.56747925 281.94528564 4.1262207 282.90966797 C-9.38689468 312.42409761 -23.75748901 341.55847777 -39.97265625 369.69140625 C-43.20636585 375.31411409 -46.25625024 381.02953009 -49.3125 386.75 C-55.46632684 398.20708699 -62.04735979 409.38846353 -68.73518372 420.53990173 C-71.42720602 425.03159115 -74.0925917 429.53854167 -76.75 434.05078125 C-85.39777502 448.72219461 -94.19081656 463.25929326 -103.43408203 477.56640625 C-105.94219925 481.46427223 -108.40658607 485.38942592 -110.875 489.3125 C-112.38827299 491.70710517 -113.90281142 494.10090659 -115.41748047 496.49462891 C-116.48391241 498.18295421 -117.54799311 499.8727667 -118.60986328 501.56396484 C-131.01925018 521.31554218 -144.11886158 540.59561557 -157.20167542 559.90452576 C-160.96038653 565.4545222 -164.69167962 571.02151464 -168.40234375 576.60375977 C-170.57323803 579.85976945 -172.77768716 583.09143553 -175 586.3125 C-175.44802979 586.9629126 -175.89605957 587.6133252 -176.35766602 588.28344727 C-190.81903907 609.25062296 -205.41801854 630.11310873 -220.36328125 650.73828125 C-221.98509064 652.97939733 -223.60265132 655.22351315 -225.21875 657.46875 C-232.48921757 667.56613085 -239.83944415 677.60199963 -247.23388672 687.60888672 C-249.57596699 690.77979275 -251.91430591 693.95344618 -254.25219727 697.12744141 C-255.41762815 698.70945808 -256.58348127 700.2911638 -257.74975586 701.87255859 C-260.67391192 705.83805521 -263.59240618 709.80749652 -266.5 713.78515625 C-272.83349333 722.43739714 -279.27022055 730.98881829 -285.88183594 739.43066406 C-290.24138882 745.00215792 -294.50709491 750.63729515 -298.73828125 756.30664062 C-302.63694654 761.52750742 -306.59086267 766.70294248 -310.57421875 771.859375 C-312.20545136 773.97130901 -313.8337685 776.08509845 -315.45703125 778.203125 C-320.13668002 784.30717535 -324.85456329 790.3788414 -329.61523438 796.41992188 C-332.81079633 800.47770778 -335.98473051 804.55171662 -339.15014648 808.63305664 C-344.6047503 815.66570319 -350.09882724 822.66199329 -355.67382812 829.59960938 C-358.95856228 833.68912526 -362.20721514 837.80488463 -365.4375 841.9375 C-369.94089349 847.6941464 -374.53678437 853.37107446 -379.15942383 859.03222656 C-382.70100334 863.3773489 -386.1815058 867.76439107 -389.625 872.1875 C-393.586275 877.27075463 -397.68405505 882.21173202 -401.87548828 887.10620117 C-405.18840747 890.99284971 -408.36654612 894.96769568 -411.5 899 C-415.98820676 904.77294995 -420.64885981 910.3715081 -425.39453125 915.93359375 C-428.48224446 919.55526394 -431.48975763 923.24033762 -434.49609375 926.9296875 C-443.55899541 938.04269952 -452.70667939 949.07907406 -462 960 C-463.87647919 962.2070813 -465.75152875 964.41536481 -467.625 966.625 C-468.08559814 967.16817871 -468.54619629 967.71135742 -469.02075195 968.27099609 C-471.84385188 971.60880485 -474.6219616 974.97891613 -477.375 978.375 C-481.53923915 983.4944768 -485.85626937 988.46950278 -490.19384766 993.44165039 C-493.44718689 997.17998611 -496.6324576 1000.95917399 -499.75 1004.8125 C-503.27669369 1009.16938253 -506.97502089 1013.32675904 -510.75 1017.46875 C-513.07862053 1020.0884481 -515.29562947 1022.7751531 -517.5 1025.5 C-521.1126583 1029.96564707 -524.88893545 1034.23284615 -528.7578125 1038.4765625 C-531.04515904 1041.05082358 -533.21548271 1043.69289489 -535.375 1046.375 C-539.05701535 1050.92940923 -542.92900357 1055.23747565 -546.91577148 1059.52124023 C-549.8868675 1062.73263407 -552.69946588 1066.02609763 -555.4375 1069.4375 C-559.80140459 1074.85908343 -564.4842153 1079.92842117 -569.2265625 1085.015625 C-573.50857767 1089.60942351 -577.60355969 1094.3543136 -581.66796875 1099.140625 C-587.26859178 1105.72497915 -592.95478719 1112.19536731 -598.84594727 1118.52172852 C-602.04022697 1121.95234799 -605.16034384 1125.43171458 -608.2265625 1128.9765625 C-610.45138092 1131.51501171 -612.72503319 1134.00641776 -615 1136.5 C-617.84524228 1139.61907011 -620.6719958 1142.74755391 -623.4375 1145.9375 C-626.86836233 1149.88745261 -630.41130271 1153.731871 -633.95507812 1157.58007812 C-636.48725408 1160.3345576 -638.99027735 1163.10733787 -641.4375 1165.9375 C-645.01937309 1170.069109 -648.73837958 1174.06929927 -652.45458984 1178.07958984 C-656.25136652 1182.17963479 -660.00005551 1186.31988173 -663.73046875 1190.48046875 C-667.65603368 1194.83845391 -671.62895935 1199.15305731 -675.59716797 1203.47216797 C-676.97356272 1204.97120702 -678.34841739 1206.47164076 -679.72265625 1207.97265625 C-685.96189036 1214.7871628 -692.2223854 1221.58174315 -698.49267578 1228.36767578 C-699.97410134 1229.97195361 -701.45408992 1231.57754366 -702.93359375 1233.18359375 C-709.9985729 1240.85074858 -717.10293545 1248.48038603 -724.22216797 1256.09716797 C-725.97330308 1257.97142601 -727.72321914 1259.84681329 -729.47265625 1261.72265625 C-737.31332955 1270.12969873 -745.16685311 1278.52457072 -753.03515625 1286.90576172 C-755.08750234 1289.09326479 -757.13751398 1291.28294151 -759.1875 1293.47265625 C-765.41841361 1300.1199762 -771.66055307 1306.72637657 -778.15234375 1313.12109375 C-779.89845602 1314.89673858 -781.51582452 1316.72544699 -783.125 1318.625 C-787.27456623 1323.47590137 -791.85196507 1327.90350173 -796.40673828 1332.36962891 C-799.52300742 1335.44368757 -802.52317806 1338.55284274 -805.375 1341.875 C-810.2576343 1347.53753764 -815.64735456 1352.69242005 -820.97265625 1357.93359375 C-824.48888859 1361.41596189 -827.9573779 1364.87799035 -831.15625 1368.65625 C-837.63699652 1376.20583044 -844.97336767 1383.02392288 -852.0390625 1390.01855469 C-854.02816103 1391.98941341 -856.01412897 1393.96339005 -858 1395.9375 C-858.598125 1396.52732666 -859.19625 1397.11715332 -859.8125 1397.72485352 C-862.66756196 1400.5635849 -865.40737631 1403.4415625 -868.01332092 1406.51133728 C-872.83055474 1412.03884435 -878.03757807 1417.17757433 -883.22436523 1422.35375977 C-884.34561448 1423.47636661 -885.46665143 1424.59918551 -886.5874939 1425.72219849 C-889.61205329 1428.75128955 -892.63973455 1431.77724156 -895.66815066 1434.80247617 C-898.84896121 1437.98074097 -902.02731528 1441.16146087 -905.20606995 1444.34178162 C-910.54289152 1449.68041844 -915.88180872 1455.01695269 -921.22192383 1460.35229492 C-927.38075811 1466.50568783 -933.53598186 1472.66267469 -939.68934292 1478.82154042 C-944.98877965 1484.12552665 -950.29017705 1489.42754724 -955.59319454 1494.72795337 C-958.75335858 1497.88656473 -961.91285823 1501.04583271 -965.07058525 1504.20688057 C-968.04046771 1507.17966849 -971.01281794 1510.14996744 -973.98702621 1513.11842728 C-975.07301493 1514.20310268 -976.15817024 1515.28861329 -977.24239159 1516.37505531 C-982.45308744 1521.59543225 -987.67714646 1526.75106704 -993.30392551 1531.52766323 C-996.37621831 1534.19467443 -999.20735179 1537.10468238 -1002.0625 1540 C-1003.01588257 1540.9590625 -1003.01588257 1540.9590625 -1003.98852539 1541.9375 C-1005.9948365 1543.95588397 -1007.99784001 1545.97749876 -1010 1548 C-1025.08384598 1563.2370926 -1025.08384598 1563.2370926 -1031.15234375 1568.375 C-1035.13109143 1571.87427915 -1038.7850558 1575.72542588 -1042.5 1579.5 C-1047.54949129 1584.63054251 -1052.62115029 1589.61720878 -1058.08398438 1594.30664062 C-1061.3765312 1597.21656733 -1064.42490132 1600.36388109 -1067.5 1603.5 C-1071.88514916 1607.93255618 -1076.27811904 1612.24328301 -1081.046875 1616.265625 C-1084.14782397 1619.01926768 -1087.0212163 1622.00105221 -1089.93237305 1624.9519043 C-1093.15430605 1628.20066345 -1096.49375961 1631.22473979 -1099.97265625 1634.19140625 C-1103.31469286 1637.17283775 -1106.4081759 1640.40093646 -1109.5546875 1643.5859375 C-1112.29123479 1646.28751294 -1115.14979366 1648.79078735 -1118.0703125 1651.2890625 C-1120.83970162 1653.74451277 -1123.40035124 1656.39096339 -1125.99609375 1659.02734375 C-1128.58246151 1661.57337829 -1131.3153528 1663.92021557 -1134.06640625 1666.28515625 C-1136.53172273 1668.47156824 -1138.81944667 1670.80636893 -1141.1262207 1673.1574707 C-1142.92905709 1674.93024024 -1144.78581022 1676.58688264 -1146.703125 1678.234375 C-1150.99226643 1681.9637204 -1155.12807593 1685.83769759 -1159.25 1689.75 C-1165.1571238 1695.33337539 -1171.09677835 1700.87322518 -1177.1015625 1706.3515625 C-1180.28805189 1709.26320644 -1183.45705606 1712.19322195 -1186.625 1715.125 C-1191.18437091 1719.34127892 -1195.78132581 1723.51183741 -1200.40625 1727.65625 C-1203.4589174 1730.4146844 -1206.48079377 1733.20505514 -1209.5 1736 C-1214.95622626 1741.04953127 -1220.46103784 1746.04122373 -1226 1751 C-1231.40338021 1755.84471085 -1236.78354324 1760.71219933 -1242.125 1765.625 C-1246.04250658 1769.22653881 -1249.99641653 1772.77788211 -1254.015625 1776.265625 C-1258.89361626 1780.52906618 -1263.68861052 1784.88944215 -1268.47265625 1789.2578125 C-1272.61969979 1793.03024197 -1276.8099907 1796.68419744 -1281.1875 1800.1875 C-1286.51979385 1804.49406264 -1291.47195923 1809.13594489 -1296.44750977 1813.84204102 C-1300.89135358 1818.02365114 -1305.48771327 1821.91897587 -1310.2578125 1825.7265625 C-1313.45041771 1828.37342323 -1316.47439383 1831.16568051 -1319.5 1834 C-1324.26084317 1838.45878938 -1329.16468334 1842.63798242 -1334.25390625 1846.72265625 C-1337.26319242 1849.21826626 -1340.13935389 1851.83768467 -1343 1854.5 C-1347.63242943 1858.81001772 -1352.421228 1862.85061624 -1357.3515625 1866.8203125 C-1359.97275119 1868.97757399 -1362.49154281 1871.21311 -1365 1873.5 C-1369.29991791 1877.41891252 -1373.75919547 1881.09170869 -1378.28125 1884.75 C-1380.92147729 1886.93501569 -1383.4672972 1889.19171391 -1386 1891.5 C-1390.19729034 1895.32170863 -1394.53710231 1898.91474189 -1398.94921875 1902.484375 C-1402.52056624 1905.42925052 -1406.0121164 1908.45720087 -1409.5 1911.5 C-1414.65918214 1915.99829517 -1419.8815006 1920.39311143 -1425.203125 1924.69921875 C-1428.45278657 1927.37247387 -1431.6315005 1930.12081594 -1434.8125 1932.875 C-1439.42479861 1936.86241467 -1444.11493749 1940.70748022 -1448.9375 1944.4375 C-1454.69462179 1948.89182658 -1460.20373476 1953.58311601 -1465.67993164 1958.37695312 C-1469.77959902 1961.96035818 -1473.94782931 1965.42009318 -1478.2265625 1968.7890625 C-1481.94038672 1971.7496604 -1485.5915776 1974.7838922 -1489.25 1977.8125 C-1494.52839623 1982.17770699 -1499.84299787 1986.48264755 -1505.25 1990.6875 C-1509.75663188 1994.19272914 -1514.16225661 1997.78783593 -1518.5 2001.5 C-1523.42081486 2005.71028703 -1528.44587578 2009.75494343 -1533.55639648 2013.73217773 C-1538.1093673 2017.2813242 -1542.59332837 2020.90857447 -1547.0625 2024.5625 C-1552.89762601 2029.32660862 -1558.80518292 2033.97275983 -1564.79296875 2038.54296875 C-1568.19854197 2041.14402636 -1571.5703615 2043.78696242 -1574.9375 2046.4375 C-1575.52192871 2046.89745361 -1576.10635742 2047.35740723 -1576.70849609 2047.83129883 C-1578.47267685 2049.2204271 -1580.2363689 2050.61017398 -1582 2052 C-1597.48606749 2064.19734758 -1613.03582775 2076.30922428 -1628.71484375 2088.2578125 C-1631.15492851 2090.11811644 -1633.59314861 2091.98084757 -1636.03125 2093.84375 C-1651.9655254 2106.01158017 -1667.97769865 2118.069391 -1684.13500977 2129.93969727 C-1689.13510131 2133.61573001 -1694.10709049 2137.32652319 -1699.0625 2141.0625 C-1706.8678252 2146.93940486 -1714.7834481 2152.65788941 -1722.71777344 2158.35888672 C-1725.73313494 2160.52718582 -1728.74387002 2162.70185174 -1731.75415039 2164.87719727 C-1733.25297577 2165.96021632 -1734.7521629 2167.04273491 -1736.25170898 2168.12475586 C-1739.99479192 2170.82586189 -1743.73376541 2173.53233121 -1747.46484375 2176.25 C-1755.84542364 2182.34496719 -1764.30365772 2188.29597508 -1772.87890625 2194.11401367 C-1779.17856851 2198.40164359 -1785.37005566 2202.8251115 -1791.51171875 2207.3359375 C-1796.47461829 2210.96340033 -1801.54899707 2214.39411803 -1806.67358398 2217.78881836 C-1810.27142809 2220.18042746 -1813.85086767 2222.59775848 -1817.42578125 2225.0234375 C-1818.06849472 2225.45933701 -1818.71120819 2225.89523651 -1819.37339783 2226.34434509 C-1822.01034867 2228.13322642 -1824.64672364 2229.92295509 -1827.28295898 2231.71289062 C-1840.90730918 2240.96167302 -1854.59035337 2250.11641146 -1868.375 2259.125 C-1868.92081726 2259.48172791 -1869.46663452 2259.83845581 -1870.0289917 2260.20599365 C-1907.09685762 2284.4212159 -1944.63473652 2307.89201692 -1983 2330 C-1984.11375 2330.64324219 -1985.2275 2331.28648437 -1986.375 2331.94921875 C-2000.58439206 2340.15198919 -2014.86830272 2348.18950271 -2029.328125 2355.9453125 C-2032.91717866 2357.87070287 -2036.49043275 2359.81972896 -2040.046875 2361.8046875 C-2068.58078458 2377.6931704 -2098.06203862 2391.96229112 -2128 2405 C-2128.71673889 2405.31217468 -2129.43347778 2405.62434937 -2130.17193604 2405.94598389 C-2176.04412269 2425.87305743 -2224.13013433 2443.71291307 -2274 2450 C-2275.08933838 2450.14139404 -2275.08933838 2450.14139404 -2276.20068359 2450.28564453 C-2283.94785815 2451.18244937 -2291.71058802 2451.24331391 -2299.5 2451.25 C-2300.20898438 2451.25067474 -2300.91796875 2451.25134949 -2301.6484375 2451.25204468 C-2312.66351206 2451.23542389 -2323.29031239 2450.75811133 -2334 2448 C-2334.69464355 2447.82307617 -2335.38928711 2447.64615234 -2336.10498047 2447.46386719 C-2356.86587185 2441.98128743 -2374.19663869 2430.25976068 -2385.1484375 2411.51953125 C-2390.59795543 2401.16084844 -2394.10265119 2390.58884273 -2396 2379 C-2396.27650391 2377.31390625 -2396.27650391 2377.31390625 -2396.55859375 2375.59375 C-2397.37099957 2368.74912888 -2397.24447619 2361.82129022 -2397.25 2354.9375 C-2397.25067474 2354.18156555 -2397.25134949 2353.4256311 -2397.25204468 2352.64678955 C-2397.23356813 2339.56297821 -2396.36162508 2326.89101689 -2394 2314 C-2393.82839355 2313.0507666 -2393.65678711 2312.1015332 -2393.47998047 2311.12353516 C-2378.5493897 2230.57306466 -2341.44400237 2152.56470559 -2301.46777344 2081.61474609 C-2299.78827124 2078.62281853 -2298.13171898 2075.61874367 -2296.4765625 2072.61328125 C-2275.09355389 2033.83656898 -2252.36889992 1995.83378706 -2228.58105469 1958.48486328 C-2226.87519708 1955.80385359 -2225.17608684 1953.11862209 -2223.4765625 1950.43359375 C-2213.49743047 1934.7125315 -2203.20550957 1919.21071864 -2192.84281921 1903.74084473 C-2189.5984307 1898.89726325 -2186.367301 1894.04501644 -2183.14160156 1889.18896484 C-2171.65251837 1871.90266804 -2159.84342955 1854.84097648 -2147.96679688 1837.81933594 C-2146.08568392 1835.12282496 -2144.20681233 1832.42476371 -2142.328125 1829.7265625 C-2135.18745895 1819.48386833 -2127.94468869 1809.32150798 -2120.60888672 1799.21777344 C-2117.89956783 1795.48310686 -2115.20040679 1791.74111262 -2112.5 1788 C-2111.41538248 1786.49868499 -2110.33074707 1784.9973829 -2109.24609375 1783.49609375 C-2107.08994701 1780.51090892 -2104.93652496 1777.52378612 -2102.78515625 1774.53515625 C-2091.70781433 1759.15397531 -2080.48881779 1743.89434824 -2068.96606445 1728.84326172 C-2064.53604918 1723.04682999 -2060.1821242 1717.20068204 -2055.875 1711.3125 C-2050.74193314 1704.29983126 -2045.47497302 1697.40749817 -2040.11547852 1690.56665039 C-2036.28549244 1685.67268955 -2032.52497571 1680.7335984 -2028.8125 1675.75 C-2023.76871489 1668.98536477 -2018.59782258 1662.33200071 -2013.35888672 1655.71777344 C-2011.06487891 1652.81791017 -2008.78311952 1649.90843766 -2006.5 1647 C-2005.58339083 1645.83328816 -2004.66672418 1644.66662147 -2003.75 1643.5 C-2003.29625 1642.9225 -2002.8425 1642.345 -2002.375 1641.75 C-2000.3125 1639.125 -2000.3125 1639.125 -1998.25 1636.5 C-1997.79641113 1635.92266113 -1997.34282227 1635.34532227 -1996.87548828 1634.75048828 C-1995.95736646 1633.58205848 -1995.03907174 1632.41376452 -1994.12060547 1631.24560547 C-1991.84977631 1628.35699494 -1989.58185054 1625.46620452 -1987.3203125 1622.5703125 C-1981.90053589 1615.6380401 -1976.39985849 1608.7789578 -1970.83642578 1601.96142578 C-1967.34492684 1597.6758874 -1963.9019522 1593.35688616 -1960.5 1589 C-1956.01899518 1583.26116927 -1951.44393296 1577.60433925 -1946.83813477 1571.96533203 C-1943.31522641 1567.64382814 -1939.85841325 1563.27748035 -1936.4375 1558.875 C-1932.20411331 1553.43660147 -1927.78601655 1548.1850872 -1923.27587891 1542.97485352 C-1919.72162729 1538.86383495 -1916.28723035 1534.6756367 -1912.9140625 1530.4140625 C-1907.11570662 1523.10103406 -1901.12913055 1515.94796449 -1895.08666992 1508.83666992 C-1892.18792655 1505.41998671 -1889.32866681 1501.97521923 -1886.5 1498.5 C-1882.75082511 1493.89387085 -1878.92814812 1489.356104 -1875.08154297 1484.83154297 C-1872.22153062 1481.4614901 -1869.40744267 1478.05973692 -1866.625 1474.625 C-1862.45778876 1469.50186933 -1858.13687543 1464.52405072 -1853.79736328 1459.54736328 C-1850.63547557 1455.91280797 -1847.53157059 1452.24488132 -1844.5 1448.5 C-1839.9033161 1442.82767526 -1835.11785807 1437.32967458 -1830.32421875 1431.82421875 C-1827.19707968 1428.23232055 -1824.09481234 1424.61975649 -1821 1421 C-1816.31032318 1415.51800688 -1811.5928664 1410.06078403 -1806.86206055 1404.61425781 C-1803.66676218 1400.932708 -1800.49004509 1397.23623029 -1797.32739258 1393.52661133 C-1793.22714314 1388.71798681 -1789.08982759 1383.966074 -1784.8125 1379.3125 C-1781.64169258 1375.85984304 -1778.61964969 1372.34469034 -1775.6875 1368.6875 C-1771.61122355 1363.63003134 -1767.24506037 1358.91490655 -1762.79541016 1354.18994141 C-1759.57260294 1350.74908482 -1756.50513088 1347.25037818 -1753.5625 1343.5625 C-1748.7595362 1337.56101474 -1743.49476717 1332.03076423 -1738.2265625 1326.44140625 C-1735.30825324 1323.34226514 -1732.4803901 1320.17924102 -1729.703125 1316.953125 C-1727.50634095 1314.43387724 -1725.25310381 1311.96897004 -1723 1309.5 C-1720.15475772 1306.38092989 -1717.3280042 1303.25244609 -1714.5625 1300.0625 C-1711.13163767 1296.11254739 -1707.58869729 1292.268129 -1704.04492188 1288.41992188 C-1701.51274592 1285.6654424 -1699.00972265 1282.89266213 -1696.5625 1280.0625 C-1692.98062691 1275.930891 -1689.26162042 1271.93070073 -1685.54541016 1267.92041016 C-1681.74863348 1263.82036521 -1677.99994449 1259.68011827 -1674.26953125 1255.51953125 C-1670.34396632 1251.16154609 -1666.37104065 1246.84694269 -1662.40283203 1242.52783203 C-1661.02643728 1241.02879298 -1659.65158261 1239.52835924 -1658.27734375 1238.02734375 C-1652.03810964 1231.2128372 -1645.7776146 1224.41825685 -1639.50732422 1217.63232422 C-1638.02589866 1216.02804639 -1636.54591008 1214.42245634 -1635.06640625 1212.81640625 C-1628.0014271 1205.14925142 -1620.89706455 1197.51961397 -1613.77783203 1189.90283203 C-1611.44857304 1187.40980201 -1609.12164449 1184.91460297 -1606.79467773 1182.41943359 C-1604.47355465 1179.9311373 -1602.15098846 1177.44419112 -1599.828125 1174.95751953 C-1598.56471864 1173.60468937 -1597.30172403 1172.25147459 -1596.0390625 1170.89794922 C-1594.04809957 1168.76415213 -1592.05546153 1166.63193034 -1590.0625 1164.5 C-1589.45994385 1163.85361572 -1588.8573877 1163.20723145 -1588.23657227 1162.54125977 C-1585.29402924 1159.39670964 -1582.31792611 1156.30012292 -1579.26171875 1153.265625 C-1576.98370485 1151.00318129 -1574.80905769 1148.71634383 -1572.75 1146.25 C-1569.81720303 1142.84161433 -1566.69925554 1139.65602235 -1563.5 1136.5 C-1560.4676965 1133.50823532 -1557.49845631 1130.50847913 -1554.75 1127.25 C-1550.65060394 1122.43420463 -1546.10504899 1118.05436192 -1541.59277344 1113.62988281 C-1538.48700618 1110.56619474 -1535.49654798 1107.46882235 -1532.65625 1104.15625 C-1527.56698156 1098.25407254 -1521.93098865 1092.88724255 -1516.3828125 1087.421875 C-1515.53460937 1086.58140625 -1514.68640625 1085.7409375 -1513.8125 1084.875 C-1512.67748047 1083.75738281 -1512.67748047 1083.75738281 -1511.51953125 1082.6171875 C-1509.48749688 1080.50639211 -1507.56412525 1078.36579375 -1505.65039062 1076.15039062 C-1502.18930512 1072.16431947 -1498.53779239 1068.42501315 -1494.78125 1064.71875 C-1494.11967896 1064.06096558 -1493.45810791 1063.40318115 -1492.77648926 1062.72546387 C-1489.98421856 1059.94933442 -1487.18594584 1057.17928463 -1484.38818359 1054.40869141 C-1482.32959102 1052.3683292 -1480.27412097 1050.32485669 -1478.21875 1048.28125 C-1477.59875122 1047.66954956 -1476.97875244 1047.05784912 -1476.33996582 1046.4276123 C-1473.42103919 1043.52482212 -1470.61283846 1040.58578204 -1467.94651794 1037.44850159 C-1463.31197716 1032.12939721 -1458.31803236 1027.17785149 -1453.32641602 1022.19702148 C-1452.26427943 1021.13352707 -1451.20235508 1020.06982066 -1450.140625 1019.00592041 C-1447.27721601 1016.1379824 -1444.41068884 1013.27318072 -1441.54342389 1010.40909839 C-1438.53077593 1007.39899757 -1435.52058608 1004.38644011 -1432.50999451 1001.37428284 C-1427.45564336 996.31811684 -1422.39919772 991.26405268 -1417.34155273 986.21118164 C-1411.50990778 980.38497798 -1405.6818738 974.55518086 -1399.85570198 968.72350448 C-1394.83651825 963.69977009 -1389.81537254 958.67800291 -1384.79260772 953.65784889 C-1381.80011799 950.66691121 -1378.80829135 947.67531863 -1375.81823921 944.68194389 C-1373.00594634 941.86674387 -1370.19118308 939.05403661 -1367.37456512 936.24316406 C-1366.34662893 935.21654029 -1365.31952441 934.18908293 -1364.29335594 933.16069221 C-1359.24598185 928.1034037 -1354.18040475 923.13752579 -1348.73336697 918.50962925 C-1345.49725565 915.6912253 -1342.51314152 912.61510662 -1339.5 909.5625 C-1338.4800293 908.53684937 -1338.4800293 908.53684937 -1337.43945312 907.49047852 C-1335.29049074 905.32942945 -1333.14482721 903.16515274 -1331 901 C-1328.16966163 898.14283983 -1325.33587327 895.28916546 -1322.5 892.4375 C-1321.86642578 891.79562744 -1321.23285156 891.15375488 -1320.58007812 890.49243164 C-1316.79099349 886.68297024 -1312.8743975 883.09409783 -1308.80786133 879.58300781 C-1306.5578771 877.61286633 -1304.44074086 875.53783832 -1302.34375 873.40625 C-1301.54839844 872.60316406 -1300.75304688 871.80007813 -1299.93359375 870.97265625 C-1299.13050781 870.15667969 -1298.32742188 869.34070312 -1297.5 868.5 C-1292.45050871 863.36945749 -1287.37884971 858.38279122 -1281.91601562 853.69335938 C-1278.62346841 850.78343233 -1275.57510285 847.6361152 -1272.5 844.5 C-1268.13627105 840.08914771 -1263.76559026 835.80236042 -1259.01953125 831.80078125 C-1255.6758466 828.81927521 -1252.57489625 825.59446018 -1249.42773438 822.40820312 C-1246.05367346 819.00848395 -1242.57476105 815.81206375 -1238.92578125 812.70703125 C-1235.88338305 810.01021987 -1233.07674191 807.08465604 -1230.22265625 804.19140625 C-1227.5729856 801.57898932 -1224.78827197 799.16697379 -1221.96484375 796.74609375 C-1219.18575486 794.2764064 -1216.61139504 791.62096678 -1214.00390625 788.97265625 C-1211.41753849 786.42662171 -1208.6846472 784.07978443 -1205.93359375 781.71484375 C-1203.46836327 779.52850803 -1201.18071363 777.19379642 -1198.87402344 774.84277344 C-1197.06982937 773.06866494 -1195.21161331 771.41059622 -1193.29296875 769.76171875 C-1189.02751144 766.05283845 -1184.91233052 762.20264489 -1180.8125 758.3125 C-1173.59022659 751.48782635 -1166.32127202 744.71823289 -1159 738 C-1158.49662109 737.53787109 -1157.99324219 737.07574219 -1157.47460938 736.59960938 C-1154.47958368 733.85064484 -1151.48226819 731.10419016 -1148.48388672 728.35888672 C-1146.48917482 726.53220583 -1144.49540093 724.70450295 -1142.50170898 722.87670898 C-1141.50260376 721.96076778 -1140.50341789 721.04491455 -1139.50415039 720.12915039 C-1136.97803926 717.81406372 -1134.45294702 715.49788212 -1131.9296875 713.1796875 C-1125.65329142 707.41548695 -1119.34328 701.69059524 -1113 696 C-1111.33307353 694.50028872 -1109.66640851 693.00028679 -1108 691.5 C-1088 673.5 -1088 673.5 -1085.5078125 671.2578125 C-1083.81407106 669.73291756 -1082.12138831 668.20684598 -1080.4296875 666.6796875 C-1076.0045187 662.68756274 -1071.55662865 658.72674108 -1067.0625 654.8125 C-1064.69035571 652.72788836 -1062.34443935 650.61571356 -1060 648.5 C-1054.66437363 643.68985199 -1049.28413119 638.94019763 -1043.8125 634.28515625 C-1038.05735158 629.38425634 -1032.35092834 624.45818358 -1026.8125 619.3125 C-1022.28801899 615.10970691 -1017.59186263 611.18310786 -1012.78125 607.3125 C-1009.75980664 604.80028867 -1006.87559922 602.17597543 -1004 599.5 C-999.38998361 595.2104224 -994.62216764 591.19589103 -989.71484375 587.24609375 C-986.89326505 584.9116941 -984.19409288 582.48009402 -981.5 580 C-977.0301488 575.88621091 -972.40955107 572.02912703 -967.68359375 568.21484375 C-965.05291443 566.04367173 -962.52057576 563.79758643 -960 561.5 C-955.80270966 557.67829137 -951.46289769 554.08525811 -947.05078125 550.515625 C-943.47943376 547.57074948 -939.9878836 544.54279913 -936.5 541.5 C-931.34435937 537.00479267 -926.12488576 532.61376336 -920.80859375 528.30859375 C-917.49701407 525.58655815 -914.2469 522.79856861 -911 520 C-905.98689941 515.68060414 -900.9146229 511.44902564 -895.77734375 507.27734375 C-892.65603433 504.71795783 -889.57556761 502.11398455 -886.5 499.5 C-880.72461377 494.59444691 -874.87902722 489.78103243 -869 485 C-867.29106802 483.60489966 -865.58274921 482.20904792 -863.875 480.8125 C-862.97136719 480.07386719 -862.06773438 479.33523438 -861.13671875 478.57421875 C-858.75824612 476.62578768 -856.38791551 474.66771068 -854.01953125 472.70703125 C-846.75903945 466.70109144 -839.46577506 460.75837296 -832.02807617 454.97314453 C-828.10405958 451.90629141 -824.28364884 448.73797976 -820.5 445.5 C-815.57918514 441.28971297 -810.55412422 437.24505657 -805.44360352 433.26782227 C-800.8906327 429.7186758 -796.40667163 426.09142553 -791.9375 422.4375 C-786.10237399 417.67339138 -780.19481708 413.02724017 -774.20703125 408.45703125 C-770.80145803 405.85597364 -767.4296385 403.21303758 -764.0625 400.5625 C-763.47807129 400.10254639 -762.89364258 399.64259277 -762.29150391 399.16870117 C-760.52732315 397.7795729 -758.7636311 396.38982602 -757 395 C-741.51393251 382.80265242 -725.96417225 370.69077572 -710.28515625 358.7421875 C-707.84507149 356.88188356 -705.40685139 355.01915243 -702.96875 353.15625 C-687.0344746 340.98841983 -671.02230135 328.930609 -654.86499023 317.06030273 C-649.86489869 313.38426999 -644.89290951 309.67347681 -639.9375 305.9375 C-632.1321748 300.06059514 -624.2165519 294.34211059 -616.28222656 288.64111328 C-613.2671954 286.47305172 -610.25679376 284.29861884 -607.24682617 282.12353516 C-605.74471173 281.03812159 -604.24226835 279.9531631 -602.73950195 278.86865234 C-599.04706114 276.20377395 -595.35786762 273.53463923 -591.67578125 270.85546875 C-581.44559269 263.42150106 -571.1013711 256.16336889 -560.70703125 248.9609375 C-556.35620549 245.94574457 -552.02074881 242.90971499 -547.69262695 239.86206055 C-509.84414893 213.23341035 -471.14486907 187.67376055 -432 163 C-431.06542969 162.41041504 -430.13085938 161.82083008 -429.16796875 161.21337891 C-396.93312637 140.90302913 -364.27840944 121.25471707 -331.00976562 102.68066406 C-328.92374542 101.5158228 -326.83920907 100.34832177 -324.75585938 99.17871094 C-306.04110716 88.68058513 -287.08033766 78.71839687 -267.94628906 69.00683594 C-264.52739916 67.27082036 -261.11816087 65.51663124 -257.7109375 63.7578125 C-223.98136674 46.46605233 -188.67865655 31.72693203 -153 19 C-151.92975586 18.61457031 -150.85951172 18.22914063 -149.75683594 17.83203125 C-122.68393769 8.15547232 -94.525088 0.78967252 -66 -3 C-65.00552856 -3.14924927 -65.00552856 -3.14924927 -63.9909668 -3.30151367 C-43.65286121 -6.04419916 -19.65663893 -6.1161179 0 0 Z " fill="#0055CD" transform="translate(2977,584)"/>
<path d="M0 0 C15.47265599 14.24115888 20.8517865 35.78722555 21.72631836 56.10375977 C23.67689336 142.30183657 -24.98616015 231.16427194 -66.79638672 304.13134766 C-68.5271257 307.17482047 -70.21459188 310.240392 -71.89648438 313.31103516 C-86.96604083 340.79341304 -103.55151195 367.53266827 -120.47119141 393.90380859 C-122.21521089 396.63305786 -123.94355302 399.37161259 -125.66796875 402.11328125 C-138.54620382 422.51599707 -152.15164433 442.43521468 -165.69689941 462.39819336 C-167.06534092 464.4153082 -168.43287129 466.4330349 -169.79980469 468.45117188 C-181.6863547 485.99363565 -193.79309591 503.36961033 -206.234375 520.5234375 C-208.92400264 524.2322746 -211.59186009 527.95605711 -214.25 531.6875 C-223.23194832 544.27571242 -232.28394092 556.79918333 -241.59033203 569.15039062 C-245.87490717 574.8396904 -250.1052635 580.56585781 -254.3125 586.3125 C-259.47051516 593.34675135 -264.76221955 600.26274856 -270.14086914 607.12939453 C-273.90424884 611.93871424 -277.60224836 616.78999375 -281.25 621.6875 C-290.48366402 634.07269064 -300.05566029 646.20005496 -309.61328125 658.3359375 C-311.38627175 660.5874582 -313.15412755 662.84286764 -314.91796875 665.1015625 C-320.34122015 672.03939795 -325.84601938 678.90349088 -331.41357422 685.72607422 C-334.90507316 690.0116126 -338.3480478 694.33061384 -341.75 698.6875 C-346.23100482 704.42633073 -350.80606704 710.08316075 -355.41186523 715.72216797 C-358.93477265 720.04367071 -362.39162904 724.40998781 -365.8125 728.8125 C-369.9769419 734.1633236 -374.32687751 739.32126703 -378.77197266 744.44018555 C-382.20288684 748.41081275 -385.47828813 752.47378937 -388.6875 756.625 C-393.12060835 762.35291117 -397.78143569 767.84194242 -402.55224609 773.29052734 C-406.44796827 777.74327861 -410.21779864 782.28076327 -413.94140625 786.87890625 C-417.16929353 790.80589602 -420.49231422 794.64832059 -423.81103516 798.49853516 C-426.8225803 802.00004253 -429.78066209 805.53545521 -432.6875 809.125 C-437.30794212 814.81298109 -442.11069222 820.33314851 -446.921875 825.859375 C-450.06941686 829.47484411 -453.19523933 833.10841218 -456.3125 836.75 C-456.80121582 837.32049072 -457.28993164 837.89098145 -457.79345703 838.47875977 C-460.31602302 841.4245276 -462.83516963 844.3731762 -465.3515625 847.32421875 C-469.82310484 852.56239173 -474.30172474 857.78047615 -478.9375 862.875 C-481.9291816 866.16692205 -484.77524423 869.53341307 -487.5625 873 C-491.45450272 877.81575904 -495.5825787 882.33999962 -499.81225586 886.85522461 C-502.88949725 890.15892754 -505.80643167 893.53143113 -508.625 897.0625 C-513.45248657 903.07923965 -518.73270464 908.63280903 -524.01953125 914.2421875 C-526.9628424 917.36793182 -529.81830219 920.55623161 -532.62109375 923.80859375 C-536.10160176 927.82328045 -539.68973477 931.74363717 -543.25 935.6875 C-544.75028679 937.35390851 -546.25028872 939.02057353 -547.75 940.6875 C-556.75 950.6875 -556.75 950.6875 -559.0078125 953.1953125 C-560.48292618 954.83489879 -561.95691652 956.47549655 -563.4296875 958.1171875 C-567.9774896 963.18288877 -572.55972968 968.21555726 -577.16577148 973.22827148 C-580.02573387 976.34347193 -582.86500001 979.4758454 -585.6875 982.625 C-590.63758484 988.13879557 -595.66819572 993.57662958 -600.70166016 999.01416016 C-602.7215965 1001.19716925 -604.73886962 1003.38262799 -606.75585938 1005.56835938 C-608.25748695 1007.19561331 -609.75960384 1008.82241467 -611.26171875 1010.44921875 C-613.22436302 1012.57525715 -615.18519095 1014.70294776 -617.14453125 1016.83203125 C-623.23698514 1023.44874336 -629.36681423 1030.02904532 -635.5246582 1036.58496094 C-638.71402541 1039.98073984 -641.89845574 1043.38081981 -645.0703125 1046.79296875 C-645.6885791 1047.4576416 -646.3068457 1048.12231445 -646.94384766 1048.80712891 C-648.10344768 1050.05450617 -649.2620628 1051.30280017 -650.41943359 1052.55224609 C-653.74771807 1056.13058042 -657.14975173 1059.61514435 -660.63598633 1063.04003906 C-662.31823539 1064.75714944 -663.88264665 1066.54231304 -665.4375 1068.375 C-668.9917606 1072.50692824 -672.82318745 1076.32181015 -676.72338867 1080.1237793 C-679.48662932 1082.83909982 -682.09612568 1085.62648264 -684.625 1088.5625 C-688.92443452 1093.5328353 -693.60027686 1098.08853784 -698.2890625 1102.6875 C-701.48417981 1105.84560823 -704.58319798 1109.01926228 -707.5 1112.4375 C-712.9156944 1118.72510892 -718.95093365 1124.44344912 -724.85253906 1130.26953125 C-726.42468215 1131.82335998 -727.99363084 1133.38036677 -729.5625 1134.9375 C-730.48675781 1135.85015625 -731.41101562 1136.7628125 -732.36328125 1137.703125 C-734.4121614 1139.77416348 -736.31990009 1141.92173897 -738.20594788 1144.14146423 C-743.15726673 1149.81674921 -748.51375032 1155.09115572 -753.84155273 1160.40844727 C-755.00221041 1161.5704624 -756.16265577 1162.73268963 -757.32290649 1163.89511108 C-760.45489957 1167.03163745 -763.59001677 1170.1650231 -766.72586703 1173.29769254 C-770.01878601 1176.58806663 -773.30924951 1179.88089486 -776.60011292 1183.17332458 C-782.12524812 1188.70027529 -787.65247964 1194.22512297 -793.1809082 1199.7487793 C-799.5578687 1206.12029838 -805.93121895 1212.49541172 -812.30270618 1218.87240368 C-817.78897821 1224.36322451 -823.27721012 1229.85208066 -828.76706272 1235.33932155 C-832.03900961 1238.60971538 -835.31029133 1241.88076688 -838.57980156 1245.15359688 C-841.65474371 1248.23144346 -844.73215203 1251.30680338 -847.81142044 1254.3803215 C-848.93611081 1255.50369801 -850.05996672 1256.62791072 -851.18288994 1257.75305367 C-856.518598 1263.09832971 -861.86120777 1268.38822233 -867.62062168 1273.2818594 C-870.21549267 1275.52041626 -872.59186855 1277.93625671 -875 1280.375 C-875.50241211 1280.88119873 -876.00482422 1281.38739746 -876.52246094 1281.90893555 C-878.10082712 1283.4993185 -879.67585009 1285.09294445 -881.25 1286.6875 C-893.048912 1298.63936086 -893.048912 1298.63936086 -899.390625 1304.05078125 C-902.84437508 1307.09095202 -906.02956454 1310.40416541 -909.25 1313.6875 C-913.80989783 1318.33645834 -918.44041822 1322.78486218 -923.375 1327.03515625 C-926.12938742 1329.46246017 -928.68854242 1332.05989537 -931.25 1334.6875 C-935.11983397 1338.61069426 -939.05818811 1342.3417679 -943.2578125 1345.9140625 C-946.59046851 1348.88077981 -949.67001651 1352.10042191 -952.8046875 1355.2734375 C-955.54123479 1357.97501294 -958.39979366 1360.47828735 -961.3203125 1362.9765625 C-964.00916548 1365.36060624 -966.50477545 1367.91566028 -969 1370.5 C-970.94690226 1372.39282164 -972.93446948 1374.17439757 -974.984375 1375.953125 C-979.26429028 1379.67083124 -983.3886698 1383.5352527 -987.5 1387.4375 C-993.40979795 1393.02340298 -999.35259389 1398.56527694 -1005.359375 1404.046875 C-1008.50002783 1406.9159038 -1011.62628746 1409.80006177 -1014.75 1412.6875 C-1023.34877627 1420.63044825 -1031.96602756 1428.55010993 -1040.6796875 1436.3671875 C-1043.59428474 1438.99829807 -1046.48537409 1441.65404417 -1049.375 1444.3125 C-1053.24362895 1447.87008341 -1057.15334264 1451.37039695 -1061.125 1454.8125 C-1063.86823494 1457.23300142 -1066.55881243 1459.70954178 -1069.25 1462.1875 C-1073.20589183 1465.82917889 -1077.19561624 1469.422495 -1081.2578125 1472.9453125 C-1083.61020635 1475.00250399 -1085.93034966 1477.09346915 -1088.25 1479.1875 C-1093.58562637 1483.99764801 -1098.96586881 1488.74730237 -1104.4375 1493.40234375 C-1110.19264842 1498.30324366 -1115.89907166 1503.22931642 -1121.4375 1508.375 C-1125.96198101 1512.57779309 -1130.65813737 1516.50439214 -1135.46875 1520.375 C-1138.49019484 1522.88721256 -1141.37438383 1525.51154088 -1144.25 1528.1875 C-1148.88245661 1532.49749105 -1153.67122516 1536.53811396 -1158.6015625 1540.5078125 C-1161.22275119 1542.66507399 -1163.74154281 1544.90061 -1166.25 1547.1875 C-1169.56989486 1550.21032421 -1172.94764112 1553.11262161 -1176.4375 1555.9375 C-1180.91214181 1559.56012962 -1185.28394896 1563.28224403 -1189.625 1567.0625 C-1195.91969944 1572.54341484 -1202.26502218 1577.95877484 -1208.6484375 1583.3359375 C-1210.28928736 1584.7206547 -1211.92638805 1586.10968891 -1213.5625 1587.5 C-1219.47124034 1592.51869178 -1225.41998334 1597.47792312 -1231.43359375 1602.37109375 C-1234.58785447 1604.96537476 -1237.70193827 1607.60366742 -1240.8125 1610.25 C-1245.28299475 1614.04966078 -1249.80697197 1617.76266611 -1254.40625 1621.40625 C-1258.13653051 1624.39867283 -1261.81571953 1627.45124975 -1265.5 1630.5 C-1270.77849696 1634.8650895 -1276.09299398 1639.17014452 -1281.5 1643.375 C-1286.00663795 1646.88023385 -1290.41216011 1650.47544255 -1294.75 1654.1875 C-1300.8571779 1659.41043936 -1307.13984739 1664.38155472 -1313.48388672 1669.3125 C-1316.41407883 1671.59378863 -1319.33139117 1673.89142444 -1322.25 1676.1875 C-1323.41660453 1677.10424574 -1324.58327122 1678.0209124 -1325.75 1678.9375 C-1326.3275 1679.39125 -1326.905 1679.845 -1327.5 1680.3125 C-1329.25 1681.6875 -1331 1683.0625 -1332.75 1684.4375 C-1333.32717773 1684.8910083 -1333.90435547 1685.3445166 -1334.49902344 1685.81176758 C-1335.66890016 1686.73093313 -1336.83882223 1687.65004095 -1338.00878906 1688.5690918 C-1340.87671157 1690.82206094 -1343.7439099 1693.07593723 -1346.609375 1695.33203125 C-1350.15298679 1698.12135556 -1353.7006634 1700.90546511 -1357.25 1703.6875 C-1358.26271973 1704.48196533 -1358.26271973 1704.48196533 -1359.29589844 1705.29248047 C-1368.70857683 1712.66969408 -1378.19958771 1719.928035 -1387.78540039 1727.07885742 C-1393.34779367 1731.23652439 -1398.84677414 1735.46626362 -1404.3125 1739.75 C-1412.70248481 1746.31663646 -1421.25355 1752.64645189 -1429.85449219 1758.93310547 C-1433.0527689 1761.27542268 -1436.24023752 1763.63223104 -1439.42822266 1765.98852539 C-1448.57711894 1772.7476168 -1457.77977297 1779.42915796 -1467.01171875 1786.07421875 C-1469.27066207 1787.70239256 -1471.52642661 1789.33487625 -1473.78125 1790.96875 C-1483.14774425 1797.75378396 -1492.55543993 1804.47590529 -1502.02099609 1811.12207031 C-1504.34472101 1812.75402258 -1506.66646048 1814.38877758 -1508.98828125 1816.0234375 C-1527.33702465 1828.92461198 -1545.90588826 1841.4874109 -1564.5625 1853.9375 C-1565.31378174 1854.43924744 -1566.06506348 1854.94099487 -1566.83911133 1855.45794678 C-1601.39085801 1878.523608 -1636.60058767 1900.48186774 -1672.38104248 1921.58410645 C-1674.12509541 1922.61375894 -1675.86754221 1923.6461306 -1677.60986328 1924.67871094 C-1692.94121314 1933.76448972 -1708.49599547 1942.35717175 -1724.25 1950.6875 C-1725.19633301 1951.18958984 -1726.14266602 1951.69167969 -1727.11767578 1952.20898438 C-1901.0206912 2044.34221766 -1901.0206912 2044.34221766 -1977.25 2021.6875 C-1992.10165716 2017.02457747 -2005.20846415 2007.00758002 -2012.875 1993.3828125 C-2033.96215214 1952.04720177 -2021.07949992 1901.99386528 -2007.5625 1860.1875 C-1989.64053361 1805.35367509 -1963.52090807 1752.4411098 -1934.84130859 1702.47607422 C-1933.25875685 1699.70284531 -1931.69817738 1696.91841838 -1930.14453125 1694.12890625 C-1922.49714612 1680.42018075 -1914.44049991 1666.98806485 -1906.24662781 1653.60253906 C-1903.66617349 1649.38236701 -1901.12756522 1645.13881976 -1898.60351562 1640.88476562 C-1891.12520202 1628.29025402 -1883.19938126 1615.98823481 -1875.25 1603.6875 C-1874.41914558 1602.39689052 -1873.58842299 1601.10619617 -1872.7578125 1599.81542969 C-1866.2700713 1589.74547448 -1859.67645641 1579.74920572 -1853.02587891 1569.78613281 C-1851.38141283 1567.32210882 -1849.73941854 1564.85645109 -1848.09765625 1562.390625 C-1838.28782425 1547.67245315 -1828.35979869 1533.03311078 -1818.1875 1518.5625 C-1817.61008057 1517.73959473 -1817.03266113 1516.91668945 -1816.43774414 1516.06884766 C-1814.70977723 1513.60749531 -1812.98000792 1511.14741802 -1811.25 1508.6875 C-1810.73050781 1507.94757813 -1810.21101563 1507.20765625 -1809.67578125 1506.4453125 C-1802.49552719 1496.2194494 -1795.21824722 1486.06707633 -1787.88671875 1475.94921875 C-1786.26490936 1473.70810267 -1784.64734868 1471.46398685 -1783.03125 1469.21875 C-1771.95715483 1453.83750143 -1760.73768145 1438.58036394 -1749.21606445 1423.53076172 C-1744.78604731 1417.73432754 -1740.4322311 1411.88810558 -1736.125 1406 C-1730.45407315 1398.25516631 -1724.61269401 1390.65911035 -1718.6953125 1383.1015625 C-1715.28225718 1378.74032919 -1711.9182842 1374.34287094 -1708.5625 1369.9375 C-1703.30004447 1363.03660602 -1697.96720507 1356.19519613 -1692.58837891 1349.38476562 C-1691.23661619 1347.67052731 -1689.88911597 1345.95302571 -1688.54296875 1344.234375 C-1683.3095449 1337.55430604 -1678.03754278 1330.90721162 -1672.72631836 1324.28881836 C-1669.86278059 1320.71666226 -1667.02272333 1317.12795308 -1664.20629883 1313.51855469 C-1658.99083081 1306.83495107 -1653.64506857 1300.26905937 -1648.24194336 1293.73632812 C-1644.4845883 1289.19279159 -1640.77142647 1284.61856498 -1637.1015625 1280.00390625 C-1634.27370586 1276.46610248 -1631.40012551 1272.96619998 -1628.52734375 1269.46484375 C-1627.03699798 1267.64728656 -1625.54988506 1265.82707252 -1624.06640625 1264.00390625 C-1619.5286272 1258.43076942 -1614.92015029 1252.92534604 -1610.26391602 1247.45141602 C-1607.55687886 1244.25984713 -1604.90746892 1241.0340893 -1602.3125 1237.75 C-1598.57748109 1233.035304 -1594.67043651 1228.48338776 -1590.74243164 1223.92993164 C-1587.69316393 1220.3891717 -1584.6947379 1216.81631494 -1581.75 1213.1875 C-1577.81853235 1208.34438767 -1573.77120602 1203.61125819 -1569.69799805 1198.88769531 C-1566.59560475 1195.28184997 -1563.5553422 1191.63546208 -1560.5625 1187.9375 C-1557.01137934 1183.56098373 -1553.29202602 1179.3791854 -1549.49609375 1175.21484375 C-1547.18812402 1172.61787607 -1544.99444137 1169.95345987 -1542.8125 1167.25 C-1538.95058325 1162.47465598 -1534.87325776 1157.95082315 -1530.71484375 1153.43359375 C-1528.32292703 1150.76874834 -1526.05745116 1148.03918175 -1523.8125 1145.25 C-1520.15299472 1140.71272979 -1516.30004979 1136.42719027 -1512.33178711 1132.16381836 C-1509.38082563 1128.97443687 -1506.59014247 1125.7039417 -1503.875 1122.3125 C-1499.26826989 1116.58722931 -1494.28187133 1111.26569937 -1489.2578125 1105.91015625 C-1486.4077443 1102.86955669 -1483.64511189 1099.76401576 -1480.921875 1096.609375 C-1478.89241927 1094.27644926 -1476.822353 1091.98238755 -1474.75 1089.6875 C-1472.07951656 1086.72880249 -1469.42701942 1083.75823528 -1466.8125 1080.75 C-1463.1570023 1076.55169058 -1459.40015543 1072.44818087 -1455.6484375 1068.3359375 C-1453.69762857 1066.18178693 -1451.77606388 1064.01031531 -1449.875 1061.8125 C-1446.22668285 1057.61088357 -1442.43620976 1053.54481025 -1438.65283203 1049.46533203 C-1435.97613853 1046.5740336 -1433.32696365 1043.66869324 -1430.75 1040.6875 C-1426.2241733 1035.45863226 -1421.48701508 1030.42232291 -1416.78759766 1025.35009766 C-1414.41291915 1022.78236812 -1412.04953807 1020.20435407 -1409.6875 1017.625 C-1409.01207153 1016.88769653 -1409.01207153 1016.88769653 -1408.32299805 1016.13549805 C-1406.96513106 1014.65301592 -1405.60752022 1013.17029967 -1404.25 1011.6875 C-1392.56947183 998.92902835 -1380.83525875 986.22303884 -1369.0234375 973.5859375 C-1367.28517313 971.72515229 -1365.54853325 969.86286673 -1363.8125 968 C-1357.51145665 961.23928156 -1351.19971602 954.48857918 -1344.875 947.75 C-1344.23320801 947.06437988 -1343.59141602 946.37875977 -1342.93017578 945.67236328 C-1339.04287966 941.53615173 -1335.08170099 937.49079341 -1331.03710938 933.50805664 C-1329.3144103 931.7531158 -1327.70962581 929.9421216 -1326.125 928.0625 C-1322.16502775 923.44557383 -1317.83138227 919.21452232 -1313.48779297 914.96240234 C-1310.50979961 912.02791999 -1307.65947361 909.04957343 -1304.9375 905.875 C-1299.83535113 899.96425164 -1294.19165244 894.58524718 -1288.6328125 889.109375 C-1287.78460937 888.26890625 -1286.93640625 887.4284375 -1286.0625 886.5625 C-1285.30582031 885.81742188 -1284.54914062 885.07234375 -1283.76953125 884.3046875 C-1281.76731506 882.22486603 -1279.87778884 880.11919689 -1277.99609375 877.93359375 C-1274.03347551 873.37048193 -1269.79475919 869.1236608 -1265.5 864.875 C-1264.68305664 864.06184326 -1263.86611328 863.24868652 -1263.02441406 862.41088867 C-1259.56304958 858.9657266 -1256.09571409 855.5265971 -1252.62890625 852.08691406 C-1250.08384812 849.56003492 -1247.54186869 847.03008685 -1245 844.5 C-1244.22688477 843.73518311 -1243.45376953 842.97036621 -1242.65722656 842.18237305 C-1239.32587726 838.86594132 -1236.07311637 835.53965969 -1233.02124023 831.96313477 C-1227.72951607 825.82158963 -1221.89443725 820.18834622 -1216.16015625 814.46484375 C-1214.88880593 813.19281833 -1213.61760396 811.92064461 -1212.34654236 810.64833069 C-1209.69301665 807.99333772 -1207.03770906 805.34014357 -1204.38110352 802.68823242 C-1200.99433465 799.30716022 -1197.61207607 795.92161742 -1194.23114872 792.53470516 C-1191.61026982 789.91019432 -1188.98699108 787.28809256 -1186.36300468 784.66668892 C-1185.11567456 783.42002079 -1183.86907269 782.17262352 -1182.62324715 780.92445183 C-1176.92428106 775.21710761 -1171.25071769 769.56530409 -1165.11180115 764.32691956 C-1161.38225334 761.04284509 -1157.93084545 757.4687486 -1154.4375 753.9375 C-1153.62434326 753.12055664 -1152.81118652 752.30361328 -1151.97338867 751.46191406 C-1149.39646703 748.87287329 -1146.82282375 746.28061263 -1144.25 743.6875 C-1140.85712847 740.26787281 -1137.46085343 736.85167851 -1134.0625 733.4375 C-1133.29768311 732.66438477 -1132.53286621 731.89126953 -1131.74487305 731.09472656 C-1127.6374245 726.96880238 -1123.43691965 723.03610921 -1119.02514648 719.23779297 C-1116.70658522 717.21291826 -1114.53434665 715.0679697 -1112.375 712.875 C-1111.53453125 712.02679687 -1110.6940625 711.17859375 -1109.828125 710.3046875 C-1108.97734375 709.44101562 -1108.1265625 708.57734375 -1107.25 707.6875 C-1102.01778889 702.37601296 -1096.77828446 697.18602403 -1091.1171875 692.33203125 C-1088.01310432 689.59810025 -1085.14223151 686.64193003 -1082.25 683.6875 C-1078.02183495 679.41003996 -1073.76579364 675.27778693 -1069.171875 671.390625 C-1065.85637509 668.45249906 -1062.80366203 665.24792431 -1059.69140625 662.09765625 C-1056.97797273 659.41895468 -1054.14222977 656.94141882 -1051.24609375 654.46484375 C-1048.18607449 651.74016907 -1045.35293156 648.79871928 -1042.4765625 645.8828125 C-1039.80366826 643.24743257 -1036.99631697 640.80983511 -1034.1484375 638.3671875 C-1031.69294301 636.19463065 -1029.41871563 633.86906397 -1027.12353516 631.52978516 C-1025.32078162 629.757101 -1023.46409998 628.1005402 -1021.546875 626.453125 C-1017.25773357 622.7237796 -1013.12192407 618.84980241 -1009 614.9375 C-1003.0928762 609.35412461 -997.15322165 603.81427482 -991.1484375 598.3359375 C-987.96194794 595.4242934 -984.79296118 592.49425962 -981.625 589.5625 C-977.04252355 585.32531096 -972.42509367 581.1304932 -967.77734375 576.96484375 C-964.91917758 574.3894019 -962.08293383 571.79060304 -959.25 569.1875 C-953.94880367 564.3180219 -948.6080727 559.49425976 -943.25 554.6875 C-941.58307353 553.18778872 -939.91640851 551.68778679 -938.25 550.1875 C-937.42757813 549.44757812 -936.60515625 548.70765625 -935.7578125 547.9453125 C-934.06407106 546.42041756 -932.37138831 544.89434598 -930.6796875 543.3671875 C-926.2545187 539.37506274 -921.80662865 535.41424108 -917.3125 531.5 C-914.94035571 529.41538836 -912.59443935 527.30321356 -910.25 525.1875 C-904.90210014 520.36628725 -899.50697785 515.60855973 -894.02734375 510.9375 C-888.46877521 506.19670677 -882.94062026 501.44663783 -877.5625 496.5 C-874.06740111 493.29104956 -870.5071616 490.22684163 -866.8125 487.25 C-862.81775746 484.02806683 -859.00447891 480.68092389 -855.25 477.1875 C-850.6175162 472.87753562 -845.82877767 468.83688832 -840.8984375 464.8671875 C-838.27724881 462.70992601 -835.75845719 460.47439 -833.25 458.1875 C-828.95008209 454.26858748 -824.49080453 450.59579131 -819.96875 446.9375 C-817.32852271 444.75248431 -814.7827028 442.49578609 -812.25 440.1875 C-808.02986056 436.34558061 -803.66972816 432.72634779 -799.234375 429.13671875 C-795.86238513 426.36939198 -792.55337679 423.53599585 -789.25 420.6875 C-784.23344913 416.3649223 -779.15816813 412.12970879 -774.015625 407.95703125 C-770.95632153 405.44650114 -767.94690379 402.88233808 -764.9375 400.3125 C-760.47931474 396.51144992 -755.94090255 392.84148036 -751.3125 389.25 C-746.50842936 385.52156697 -741.84222583 381.67379824 -737.25 377.6875 C-732.18332217 373.29201261 -727.00959143 369.08450761 -721.7109375 364.97265625 C-716.98589459 361.2952947 -712.35994809 357.50783612 -707.75 353.6875 C-702.03121086 348.95249897 -696.26596466 344.29196866 -690.41137695 339.72607422 C-686.22264951 336.45895043 -682.07526457 333.14384758 -677.9375 329.8125 C-671.92490419 324.97813795 -665.81345228 320.28624179 -659.66796875 315.62255859 C-654.67891346 311.82056223 -649.7886106 307.91362001 -644.9375 303.9375 C-639.52114519 299.50040644 -634.03427198 295.20322092 -628.40625 291.03515625 C-624.68224775 288.26519913 -620.99617694 285.44823123 -617.3125 282.625 C-615.85289069 281.50777839 -614.3932545 280.3905919 -612.93359375 279.2734375 C-610.53634798 277.43818154 -608.13928941 275.60268297 -605.74267578 273.76660156 C-594.11314435 264.86140166 -582.41365334 256.06521264 -570.59716797 247.40966797 C-568.21878089 245.66459387 -565.84500866 243.91342383 -563.47265625 242.16015625 C-553.51988642 234.80543789 -543.51925741 227.52132616 -533.47509766 220.29199219 C-531.25501377 218.69111537 -529.03901451 217.08474569 -526.82421875 215.4765625 C-516.53803029 208.01276931 -506.16054287 200.68888378 -495.73388672 193.42285156 C-493.36089469 191.76497587 -490.99380237 190.09908527 -488.62890625 188.4296875 C-473.31626888 177.63278954 -457.7936387 167.14771235 -442.25 156.6875 C-441.63608398 156.27421448 -441.02216797 155.86092896 -440.38964844 155.43511963 C-425.63855365 145.50798594 -410.79885006 135.73857266 -395.75097656 126.26513672 C-393.37871955 124.76869736 -391.01253348 123.2631965 -388.6484375 121.75390625 C-350.09968706 97.18652471 -310.59095194 73.9431661 -270.12695312 52.67510986 C-268.19660675 51.65940569 -266.26811982 50.64023389 -264.33984375 49.62060547 C-67.03088873 -54.5749573 -67.03088873 -54.5749573 0 0 Z " fill="#0055CD" transform="translate(2208.25,203.3125)"/>
<path d="M0 0 C13.57326729 12.74908407 20.0496295 32.58790915 20.87207031 50.85693359 C23.09820867 139.74748351 -24.53051845 229.12615727 -67.66259766 304.27001953 C-69.2451494 307.04324844 -70.80572887 309.82767537 -72.359375 312.6171875 C-80.00676013 326.325913 -88.06340634 339.7580289 -96.25727844 353.14355469 C-98.83773276 357.36372674 -101.37634103 361.60727399 -103.90039062 365.86132812 C-111.37870423 378.45583973 -119.30452499 390.75785894 -127.25390625 403.05859375 C-128.08476067 404.34920323 -128.91548326 405.63989758 -129.74609375 406.93066406 C-136.23383495 417.00061927 -142.82744984 426.99688803 -149.47802734 436.95996094 C-151.12249342 439.42398493 -152.76448771 441.88964266 -154.40625 444.35546875 C-164.216082 459.0736406 -174.14410756 473.71298297 -184.31640625 488.18359375 C-184.89382568 489.00649902 -185.47124512 489.8294043 -186.06616211 490.67724609 C-187.79412902 493.13859844 -189.52389833 495.59867573 -191.25390625 498.05859375 C-191.77339844 498.79851563 -192.29289062 499.5384375 -192.828125 500.30078125 C-200.00837906 510.52664435 -207.28565903 520.67901742 -214.6171875 530.796875 C-216.23899689 533.03799108 -217.85655757 535.2821069 -219.47265625 537.52734375 C-230.54675142 552.90859232 -241.7662248 568.16572981 -253.2878418 583.21533203 C-257.71785894 589.01176621 -262.07167515 594.85798817 -266.37890625 600.74609375 C-272.0498331 608.49092744 -277.89121224 616.0869834 -283.80859375 623.64453125 C-287.22164907 628.00576456 -290.58562205 632.40322281 -293.94140625 636.80859375 C-299.20386178 643.70948773 -304.53670118 650.55089762 -309.91552734 657.36132812 C-311.26729006 659.07556644 -312.61479028 660.79306804 -313.9609375 662.51171875 C-319.19436135 669.19178771 -324.46636347 675.83888213 -329.77758789 682.45727539 C-332.64112566 686.02943149 -335.48118292 689.61814067 -338.29760742 693.22753906 C-343.51307544 699.91114268 -348.85883768 706.47703438 -354.26196289 713.00976562 C-358.01931795 717.55330216 -361.73247978 722.12752877 -365.40234375 726.7421875 C-368.23020039 730.27999127 -371.10378074 733.77989377 -373.9765625 737.28125 C-375.46690827 739.09880719 -376.95402119 740.91902123 -378.4375 742.7421875 C-382.97527905 748.31532433 -387.58375596 753.82074771 -392.23999023 759.29467773 C-394.94702739 762.48624662 -397.59643733 765.71200445 -400.19140625 768.99609375 C-403.92642516 773.71078975 -407.83346974 778.26270599 -411.76147461 782.81616211 C-414.81074232 786.35692205 -417.80916835 789.92977881 -420.75390625 793.55859375 C-425.14452908 798.96365651 -429.67303222 804.24183127 -434.21484375 809.51953125 C-437.07987714 812.85024626 -439.92048565 816.20097754 -442.75390625 819.55859375 C-448.05154175 825.83208439 -453.39285802 832.06745018 -458.7421875 838.296875 C-460.2371712 840.03909115 -461.73024891 841.78292039 -463.22265625 843.52734375 C-482.55913632 866.12582054 -482.55913632 866.12582054 -490.00390625 874.30859375 C-492.95465505 877.55869388 -495.75688252 880.88476708 -498.50390625 884.30859375 C-503.16049437 890.06805801 -508.18224802 895.43808074 -513.24609375 900.8359375 C-516.09616195 903.87653706 -518.85879436 906.98207799 -521.58203125 910.13671875 C-523.61148698 912.46964449 -525.68155325 914.7637062 -527.75390625 917.05859375 C-530.42438969 920.01729126 -533.07688683 922.98785847 -535.69140625 925.99609375 C-539.34690395 930.19440317 -543.10375082 934.29791288 -546.85546875 938.41015625 C-548.80627768 940.56430682 -550.72784237 942.73577844 -552.62890625 944.93359375 C-556.2772234 949.13521018 -560.06769649 953.2012835 -563.85107422 957.28076172 C-566.52776772 960.17206015 -569.1769426 963.07740051 -571.75390625 966.05859375 C-576.27973295 971.28746149 -581.01689117 976.32377084 -585.71630859 981.39599609 C-588.0909871 983.96372563 -590.45436818 986.54173968 -592.81640625 989.12109375 C-593.49183472 989.85839722 -593.49183472 989.85839722 -594.1809082 990.6105957 C-595.53877519 992.09307783 -596.89638603 993.57579408 -598.25390625 995.05859375 C-609.93443442 1007.8170654 -621.6686475 1020.52305491 -633.48046875 1033.16015625 C-635.21873312 1035.02094146 -636.955373 1036.88322702 -638.69140625 1038.74609375 C-644.9924496 1045.50681219 -651.30419023 1052.25751457 -657.62890625 1058.99609375 C-658.27069824 1059.68171387 -658.91249023 1060.36733398 -659.57373047 1061.07373047 C-663.46102659 1065.20994202 -667.42220526 1069.25530034 -671.46679688 1073.23803711 C-673.18949595 1074.99297795 -674.79428044 1076.80397215 -676.37890625 1078.68359375 C-680.3388785 1083.30051992 -684.67252398 1087.53157143 -689.01611328 1091.78369141 C-691.99410664 1094.71817376 -694.84443264 1097.69652032 -697.56640625 1100.87109375 C-702.66855512 1106.78184211 -708.31225381 1112.16084657 -713.87109375 1117.63671875 C-714.71929688 1118.4771875 -715.5675 1119.31765625 -716.44140625 1120.18359375 C-717.19808594 1120.92867187 -717.95476562 1121.67375 -718.734375 1122.44140625 C-720.73659119 1124.52122772 -722.62611741 1126.62689686 -724.5078125 1128.8125 C-728.47043074 1133.37561182 -732.70914706 1137.62243295 -737.00390625 1141.87109375 C-737.82084961 1142.68425049 -738.63779297 1143.49740723 -739.47949219 1144.33520508 C-742.94085667 1147.78036715 -746.40819216 1151.21949665 -749.875 1154.65917969 C-752.42005813 1157.18605883 -754.96203756 1159.7160069 -757.50390625 1162.24609375 C-758.27702148 1163.01091064 -759.05013672 1163.77572754 -759.84667969 1164.5637207 C-763.17802899 1167.88015243 -766.43078988 1171.20643406 -769.48266602 1174.78295898 C-774.77439018 1180.92450412 -780.609469 1186.55774753 -786.34375 1192.28125 C-787.61510032 1193.55327542 -788.88630229 1194.82544914 -790.15736389 1196.09776306 C-792.8108896 1198.75275603 -795.46619719 1201.40595018 -798.12280273 1204.05786133 C-801.5095716 1207.43893353 -804.89183018 1210.82447633 -808.27275753 1214.21138859 C-810.89363643 1216.83589943 -813.51691517 1219.45800119 -816.14090157 1222.07940483 C-817.38823169 1223.32607296 -818.63483356 1224.57347023 -819.8806591 1225.82164192 C-825.57962519 1231.52898614 -831.25318856 1237.18078966 -837.3921051 1242.41917419 C-841.12165291 1245.70324866 -844.5730608 1249.27734515 -848.06640625 1252.80859375 C-848.87956299 1253.62553711 -849.69271973 1254.44248047 -850.53051758 1255.28417969 C-853.10743922 1257.87322046 -855.6810825 1260.46548112 -858.25390625 1263.05859375 C-861.64677778 1266.47822094 -865.04305282 1269.89441524 -868.44140625 1273.30859375 C-869.20622314 1274.08170898 -869.97104004 1274.85482422 -870.7590332 1275.65136719 C-874.87082425 1279.7816534 -879.0756722 1283.71940531 -883.4921875 1287.52172852 C-885.72949242 1289.47347941 -887.82841269 1291.53625428 -889.91015625 1293.65234375 C-890.70550781 1294.45542969 -891.50085937 1295.25851562 -892.3203125 1296.0859375 C-893.12339844 1296.90191406 -893.92648437 1297.71789063 -894.75390625 1298.55859375 C-899.80339754 1303.68913626 -904.87505654 1308.67580253 -910.33789062 1313.36523438 C-913.63043707 1316.27516074 -916.67881174 1319.42247113 -919.75390625 1322.55859375 C-924.16048499 1327.01286391 -928.57573881 1331.34751536 -933.3671875 1335.390625 C-936.67354855 1338.31363984 -939.71213949 1341.51020999 -942.8125 1344.6484375 C-945.52593352 1347.32713907 -948.36167648 1349.80467493 -951.2578125 1352.28125 C-954.31783176 1355.00592468 -957.15097469 1357.94737447 -960.02734375 1360.86328125 C-962.70023799 1363.49866118 -965.50758928 1365.93625864 -968.35546875 1368.37890625 C-970.81096324 1370.5514631 -973.08519062 1372.87702978 -975.38037109 1375.21630859 C-977.18312463 1376.98899275 -979.03980627 1378.64555355 -980.95703125 1380.29296875 C-985.24617268 1384.02231415 -989.38198218 1387.89629134 -993.50390625 1391.80859375 C-999.41103005 1397.39196914 -1005.3506846 1402.93181893 -1011.35546875 1408.41015625 C-1014.54195831 1411.32180035 -1017.71094507 1414.25183413 -1020.87890625 1417.18359375 C-1025.4613827 1421.42078279 -1030.07881258 1425.61560055 -1034.7265625 1429.78125 C-1037.58472867 1432.35669185 -1040.42097242 1434.95549071 -1043.25390625 1437.55859375 C-1048.55510258 1442.42807185 -1053.89583355 1447.25183399 -1059.25390625 1452.05859375 C-1060.92083272 1453.55830503 -1062.58749774 1455.05830696 -1064.25390625 1456.55859375 C-1065.07632813 1457.29851562 -1065.89875 1458.0384375 -1066.74609375 1458.80078125 C-1068.43983519 1460.32567619 -1070.13251794 1461.85174777 -1071.82421875 1463.37890625 C-1076.24938755 1467.37103101 -1080.6972776 1471.33185267 -1085.19140625 1475.24609375 C-1087.56355054 1477.33070539 -1089.9094669 1479.44288019 -1092.25390625 1481.55859375 C-1097.60180611 1486.3798065 -1102.9969284 1491.13753402 -1108.4765625 1495.80859375 C-1114.03513104 1500.54938698 -1119.56328599 1505.29945592 -1124.94140625 1510.24609375 C-1128.43650514 1513.45504419 -1131.99674465 1516.51925212 -1135.69140625 1519.49609375 C-1139.68614879 1522.71802692 -1143.49942734 1526.06516986 -1147.25390625 1529.55859375 C-1151.88639005 1533.86855813 -1156.67512858 1537.90920543 -1161.60546875 1541.87890625 C-1164.22665744 1544.03616774 -1166.74544906 1546.27170375 -1169.25390625 1548.55859375 C-1173.55382416 1552.47750627 -1178.01310172 1556.15030244 -1182.53515625 1559.80859375 C-1185.17538354 1561.99360944 -1187.72120345 1564.25030766 -1190.25390625 1566.55859375 C-1194.47404569 1570.40051314 -1198.83417809 1574.01974596 -1203.26953125 1577.609375 C-1206.64152112 1580.37670177 -1209.95052946 1583.2100979 -1213.25390625 1586.05859375 C-1218.27045712 1590.38117145 -1223.34573812 1594.61638496 -1228.48828125 1598.7890625 C-1231.54758472 1601.29959261 -1234.55700246 1603.86375567 -1237.56640625 1606.43359375 C-1242.02459151 1610.23464383 -1246.5630037 1613.90461339 -1251.19140625 1617.49609375 C-1255.99547689 1621.22452678 -1260.66168042 1625.07229551 -1265.25390625 1629.05859375 C-1270.32058408 1633.45408114 -1275.49431482 1637.66158614 -1280.79296875 1641.7734375 C-1285.51801166 1645.45079905 -1290.14395816 1649.23825763 -1294.75390625 1653.05859375 C-1300.47269539 1657.79359478 -1306.23794159 1662.45412509 -1312.0925293 1667.02001953 C-1316.28125674 1670.28714332 -1320.42864168 1673.60224617 -1324.56640625 1676.93359375 C-1330.57900206 1681.7679558 -1336.69045397 1686.45985196 -1342.8359375 1691.12353516 C-1347.82499279 1694.92553152 -1352.71529565 1698.83247374 -1357.56640625 1702.80859375 C-1362.98276106 1707.24568731 -1368.46963427 1711.54287283 -1374.09765625 1715.7109375 C-1377.8216585 1718.48089462 -1381.50772931 1721.29786252 -1385.19140625 1724.12109375 C-1386.65101556 1725.23831536 -1388.11065175 1726.35550185 -1389.5703125 1727.47265625 C-1391.96755827 1729.30791221 -1394.36461684 1731.14341078 -1396.76123047 1732.97949219 C-1408.3907619 1741.88469209 -1420.09025291 1750.68088111 -1431.90673828 1759.33642578 C-1434.28512536 1761.08149988 -1436.65889759 1762.83266992 -1439.03125 1764.5859375 C-1448.98401983 1771.94065586 -1458.98464884 1779.22476759 -1469.02880859 1786.45410156 C-1471.24889248 1788.05497838 -1473.46489174 1789.66134806 -1475.6796875 1791.26953125 C-1485.96587596 1798.73332444 -1496.34336338 1806.05720997 -1506.77001953 1813.32324219 C-1509.14301156 1814.98111788 -1511.51010388 1816.64700848 -1513.875 1818.31640625 C-1529.18763737 1829.11330421 -1544.71026755 1839.5983814 -1560.25390625 1850.05859375 C-1560.86782227 1850.47187927 -1561.48173828 1850.88516479 -1562.11425781 1851.31097412 C-1576.8653526 1861.23810781 -1591.70505619 1871.00752109 -1606.75292969 1880.48095703 C-1609.1251867 1881.97739639 -1611.49137277 1883.48289725 -1613.85546875 1884.9921875 C-1652.40421919 1909.55956904 -1691.91295431 1932.80292765 -1732.37695312 1954.07098389 C-1734.3072995 1955.08668806 -1736.23578643 1956.10585986 -1738.1640625 1957.12548828 C-1900.34494731 2042.77050404 -1900.34494731 2042.77050404 -1977.0078125 2020.9921875 C-1993.81809419 2015.49756468 -2006.25536926 2005.511626 -2014.8828125 1990.16015625 C-2034.88634383 1950.35363024 -2020.88754941 1898.67841871 -2007.96875 1858.92578125 C-1989.86130277 1804.61801002 -1964.13534496 1752.2268975 -1935.70751953 1702.61474609 C-1933.97678055 1699.57127328 -1932.28931437 1696.50570175 -1930.60742188 1693.43505859 C-1915.50951136 1665.90097136 -1898.87950922 1639.12689677 -1881.93798828 1612.70019531 C-1880.37114426 1610.24248984 -1878.82240764 1607.77465016 -1877.28125 1605.30078125 C-1866.11566832 1587.4441267 -1854.18839457 1570.09053267 -1842.38291931 1552.65422058 C-1837.58837073 1545.56713803 -1832.84886833 1538.44550702 -1828.12890625 1531.30859375 C-1823.66717244 1524.57629583 -1819.09761676 1517.96558462 -1814.2590332 1511.4987793 C-1810.63089677 1506.63654583 -1807.2153924 1501.64550791 -1803.81640625 1496.62109375 C-1799.23555325 1489.86094737 -1794.49512044 1483.26331507 -1789.55834961 1476.75927734 C-1786.42871265 1472.63494957 -1783.37047099 1468.47156435 -1780.37890625 1464.24609375 C-1774.72167302 1456.26521071 -1768.90161171 1448.40632011 -1763.0859375 1440.54052734 C-1761.25215963 1438.05622753 -1759.42402659 1435.56787451 -1757.59765625 1433.078125 C-1751.81454793 1425.19811197 -1745.99912553 1417.35522985 -1740.01171875 1409.62890625 C-1736.3965045 1404.96119597 -1732.8288732 1400.25714537 -1729.25390625 1395.55859375 C-1724.03281931 1388.70016038 -1718.80175139 1381.84999721 -1713.5390625 1375.0234375 C-1711.96092279 1372.97590239 -1710.3850951 1370.9267792 -1708.8125 1368.875 C-1703.14110391 1361.47892981 -1697.40539965 1354.13591736 -1691.63623047 1346.81591797 C-1690.27734006 1345.08838473 -1688.92306916 1343.3573391 -1687.5703125 1341.625 C-1682.1525885 1334.6934277 -1676.65261248 1327.83613954 -1671.09033203 1321.02001953 C-1667.59883309 1316.73448115 -1664.15585845 1312.41547991 -1660.75390625 1308.05859375 C-1656.27290143 1302.31976302 -1651.69783921 1296.662933 -1647.09204102 1291.02392578 C-1643.5691336 1286.70242304 -1640.11227721 1282.33610594 -1636.69140625 1277.93359375 C-1632.52696435 1272.58277015 -1628.17702874 1267.42482672 -1623.73193359 1262.3059082 C-1620.30101941 1258.335281 -1617.02561812 1254.27230438 -1613.81640625 1250.12109375 C-1609.3832979 1244.39318258 -1604.72247056 1238.90415133 -1599.95166016 1233.45556641 C-1596.05593798 1229.00281514 -1592.28610761 1224.46533048 -1588.5625 1219.8671875 C-1585.33461272 1215.94019773 -1582.01159203 1212.09777316 -1578.69287109 1208.24755859 C-1575.68132595 1204.74605122 -1572.72324416 1201.21063854 -1569.81640625 1197.62109375 C-1565.19596413 1191.93311266 -1560.39321403 1186.41294524 -1555.58203125 1180.88671875 C-1552.43448939 1177.27124964 -1549.30866692 1173.63768157 -1546.19140625 1169.99609375 C-1545.70269043 1169.42560303 -1545.21397461 1168.8551123 -1544.71044922 1168.26733398 C-1542.18788323 1165.32156615 -1539.66873662 1162.37291755 -1537.15234375 1159.421875 C-1532.68080141 1154.18370202 -1528.20218151 1148.9656176 -1523.56640625 1143.87109375 C-1520.57472465 1140.5791717 -1517.72866202 1137.21268068 -1514.94140625 1133.74609375 C-1511.04940353 1128.93033471 -1506.92132755 1124.40609413 -1502.69165039 1119.89086914 C-1499.614409 1116.58716621 -1496.69747458 1113.21466262 -1493.87890625 1109.68359375 C-1489.05141968 1103.6668541 -1483.77120161 1098.11328472 -1478.484375 1092.50390625 C-1475.54106385 1089.37816193 -1472.68560406 1086.18986214 -1469.8828125 1082.9375 C-1466.40230449 1078.9228133 -1462.81417148 1075.00245658 -1459.25390625 1071.05859375 C-1457.75361946 1069.39218524 -1456.25361753 1067.72552022 -1454.75390625 1066.05859375 C-1445.75390625 1056.05859375 -1445.75390625 1056.05859375 -1443.49609375 1053.55078125 C-1442.02098007 1051.91119496 -1440.54698973 1050.2705972 -1439.07421875 1048.62890625 C-1434.52641665 1043.56320498 -1429.94417657 1038.53053649 -1425.33813477 1033.51782227 C-1422.47817238 1030.40262182 -1419.63890624 1027.27024835 -1416.81640625 1024.12109375 C-1411.86632141 1018.60729818 -1406.83571053 1013.16946417 -1401.80224609 1007.73193359 C-1399.78230975 1005.5489245 -1397.76503663 1003.36346576 -1395.74804688 1001.17773438 C-1394.2464193 999.55048044 -1392.74430241 997.92367908 -1391.2421875 996.296875 C-1389.27954323 994.1708366 -1387.3187153 992.04314599 -1385.359375 989.9140625 C-1379.26692111 983.29735039 -1373.13709202 976.71704843 -1366.97924805 970.16113281 C-1363.78988084 966.76535391 -1360.60545051 963.36527394 -1357.43359375 959.953125 C-1356.81532715 959.28845215 -1356.19706055 958.6237793 -1355.56005859 957.93896484 C-1354.40045857 956.69158758 -1353.24184345 955.44329358 -1352.08447266 954.19384766 C-1348.75618818 950.61551333 -1345.35415452 947.1309494 -1341.86791992 943.70605469 C-1340.18567086 941.98894431 -1338.6212596 940.20378071 -1337.06640625 938.37109375 C-1333.51214565 934.23916551 -1329.6807188 930.4242836 -1325.78051758 926.62231445 C-1323.01727693 923.90699393 -1320.40778057 921.11961111 -1317.87890625 918.18359375 C-1313.57947173 913.21325845 -1308.90362939 908.65755591 -1304.21484375 904.05859375 C-1301.01972644 900.90048552 -1297.92070827 897.72683147 -1295.00390625 894.30859375 C-1289.58821185 888.02098483 -1283.5529726 882.30264463 -1277.65136719 876.4765625 C-1276.0792241 874.92273377 -1274.51027541 873.36572698 -1272.94140625 871.80859375 C-1272.01714844 870.8959375 -1271.09289063 869.98328125 -1270.140625 869.04296875 C-1268.09174485 866.97193027 -1266.18400616 864.82435478 -1264.29795837 862.60462952 C-1259.34663952 856.92934454 -1253.99015593 851.65493803 -1248.66235352 846.33764648 C-1247.50169584 845.17563135 -1246.34125048 844.01340412 -1245.18099976 842.85098267 C-1242.04900668 839.7144563 -1238.91388948 836.58107065 -1235.77803922 833.44840121 C-1232.48512024 830.15802712 -1229.19465674 826.86519889 -1225.90379333 823.57276917 C-1220.37865813 818.04581846 -1214.85142661 812.52097078 -1209.32299805 806.99731445 C-1202.94603755 800.62579537 -1196.5726873 794.25068203 -1190.20120007 787.87369007 C-1184.71492804 782.38286924 -1179.22669613 776.89401309 -1173.73684353 771.4067722 C-1170.46489664 768.13637837 -1167.19361492 764.86532687 -1163.92410469 761.59249687 C-1160.84916254 758.51465029 -1157.77175422 755.43929037 -1154.69248581 752.36577225 C-1153.56779544 751.24239574 -1152.44393953 750.11818303 -1151.32101631 748.99304008 C-1145.98530825 743.64776404 -1140.64269848 738.35787142 -1134.88328457 733.46423435 C-1132.28841358 731.22567749 -1129.9120377 728.80983704 -1127.50390625 726.37109375 C-1127.00149414 725.86489502 -1126.49908203 725.35869629 -1125.98144531 724.8371582 C-1124.40307913 723.24677525 -1122.82805616 721.6531493 -1121.25390625 720.05859375 C-1109.45499425 708.10673289 -1109.45499425 708.10673289 -1103.11328125 702.6953125 C-1099.65953117 699.65514173 -1096.47434171 696.34192834 -1093.25390625 693.05859375 C-1088.69400842 688.40963541 -1084.06348803 683.96123157 -1079.12890625 679.7109375 C-1076.37451883 677.28363358 -1073.81536383 674.68619838 -1071.25390625 672.05859375 C-1067.38407228 668.13539949 -1063.44571814 664.40432585 -1059.24609375 660.83203125 C-1055.91343774 657.86531394 -1052.83388974 654.64567184 -1049.69921875 651.47265625 C-1046.96267146 648.77108081 -1044.10411259 646.2678064 -1041.18359375 643.76953125 C-1038.49474077 641.38548751 -1035.9991308 638.83043347 -1033.50390625 636.24609375 C-1031.55700399 634.35327211 -1029.56943677 632.57169618 -1027.51953125 630.79296875 C-1023.23961597 627.07526251 -1019.11523645 623.21084105 -1015.00390625 619.30859375 C-1009.0941083 613.72269077 -1003.15131236 608.18081681 -997.14453125 602.69921875 C-994.00387842 599.83018995 -990.87761879 596.94603198 -987.75390625 594.05859375 C-979.15512998 586.1156455 -970.53787869 578.19598382 -961.82421875 570.37890625 C-958.90962151 567.74779568 -956.01853216 565.09204958 -953.12890625 562.43359375 C-949.2602773 558.87601034 -945.35056361 555.3756968 -941.37890625 551.93359375 C-938.63567131 549.51309233 -935.94509382 547.03655197 -933.25390625 544.55859375 C-929.29801442 540.91691486 -925.30829001 537.32359875 -921.24609375 533.80078125 C-918.8936999 531.74358976 -916.57355659 529.6526246 -914.25390625 527.55859375 C-908.91827988 522.74844574 -903.53803744 517.99879138 -898.06640625 513.34375 C-892.31125783 508.44285009 -886.60483459 503.51677733 -881.06640625 498.37109375 C-876.54192524 494.16830066 -871.84576888 490.24170161 -867.03515625 486.37109375 C-864.01371141 483.85888119 -861.12952242 481.23455287 -858.25390625 478.55859375 C-853.62144964 474.2486027 -848.83268109 470.20797979 -843.90234375 466.23828125 C-841.28115506 464.08101976 -838.76236344 461.84548375 -836.25390625 459.55859375 C-832.93401139 456.53576954 -829.55626513 453.63347214 -826.06640625 450.80859375 C-821.59176444 447.18596413 -817.21995729 443.46384972 -812.87890625 439.68359375 C-806.58420681 434.20267891 -800.23888407 428.78731891 -793.85546875 423.41015625 C-792.21461889 422.02543905 -790.5775182 420.63640484 -788.94140625 419.24609375 C-783.03266591 414.22740197 -777.08392291 409.26817063 -771.0703125 404.375 C-767.91605178 401.78071899 -764.80196798 399.14242633 -761.69140625 396.49609375 C-757.2209115 392.69643297 -752.69693428 388.98342764 -748.09765625 385.33984375 C-744.36737574 382.34742092 -740.68818672 379.294844 -737.00390625 376.24609375 C-731.72540929 371.88100425 -726.41091227 367.57594923 -721.00390625 363.37109375 C-716.4972683 359.8658599 -712.09174614 356.2706512 -707.75390625 352.55859375 C-701.64672835 347.33565439 -695.36405886 342.36453903 -689.02001953 337.43359375 C-686.08982742 335.15230512 -683.17251508 332.85466931 -680.25390625 330.55859375 C-679.08730172 329.64184801 -677.92063503 328.72518135 -676.75390625 327.80859375 C-676.17640625 327.35484375 -675.59890625 326.90109375 -675.00390625 326.43359375 C-672.37890625 324.37109375 -672.37890625 324.37109375 -669.75390625 322.30859375 C-668.88813965 321.6283313 -668.88813965 321.6283313 -668.00488281 320.93432617 C-666.83500609 320.01516062 -665.66508402 319.0960528 -664.49511719 318.17700195 C-661.62719468 315.92403281 -658.75999635 313.67015652 -655.89453125 311.4140625 C-652.35091946 308.62473819 -648.80324285 305.84062864 -645.25390625 303.05859375 C-644.57875977 302.5289502 -643.90361328 301.99930664 -643.20800781 301.45361328 C-633.79532942 294.07639967 -624.30431854 286.81805875 -614.71850586 279.66723633 C-609.15611258 275.50956936 -603.65713211 271.27983013 -598.19140625 266.99609375 C-589.80142144 260.42945729 -581.25035625 254.09964186 -572.64941406 247.81298828 C-569.45113735 245.47067107 -566.26366873 243.11386271 -563.07568359 240.75756836 C-553.92678731 233.99847695 -544.72413328 227.31693579 -535.4921875 220.671875 C-533.23324418 219.04370119 -530.97747964 217.4112175 -528.72265625 215.77734375 C-519.356162 208.99230979 -509.94846632 202.27018846 -500.48291016 195.62402344 C-498.15918524 193.99207117 -495.83744577 192.35731617 -493.515625 190.72265625 C-456.76051949 164.87979504 -419.33663964 139.90297837 -381.25390625 116.05859375 C-380.47595703 115.56987793 -379.69800781 115.08116211 -378.89648438 114.57763672 C-362.81113096 104.48298703 -346.47919586 94.80846122 -330.12286377 85.1619873 C-328.37881084 84.13233481 -326.63636404 83.09996315 -324.89404297 82.06738281 C-309.56263146 72.98156749 -294.00742235 64.38994689 -278.25390625 56.05859375 C-276.85035889 55.31343506 -276.85035889 55.31343506 -275.41845703 54.55322266 C-268.723235 51.00332638 -261.9975586 47.51552432 -255.25390625 44.05859375 C-254.33801727 43.58809601 -254.33801727 43.58809601 -253.40362549 43.10809326 C-63.28176953 -54.50786734 -63.28176953 -54.50786734 0 0 Z " fill="#0055CD" transform="translate(3411.25390625,1402.94140625)"/>
<path d="M0 0 C7.56358291 6.36062738 10.65506968 13.54006476 12.71484375 23.15234375 C12.83859375 24.88484375 12.83859375 24.88484375 12.96484375 26.65234375 C13.01640625 27.36777344 13.06796875 28.08320313 13.12109375 28.8203125 C14.72890531 72.03024824 -10.62739 117.00934826 -31.59667969 153.15429688 C-33.20958533 155.95525589 -34.77178709 158.78112085 -36.32714844 161.61425781 C-48.32806372 183.37668313 -62.09296412 204.10233075 -76.03515625 224.65234375 C-76.58574707 225.46445313 -77.13633789 226.2765625 -77.70361328 227.11328125 C-84.68277473 237.38441378 -91.83219127 247.53725142 -99.03515625 257.65234375 C-99.54272461 258.36616211 -100.05029297 259.07998047 -100.57324219 259.81542969 C-108.90939479 271.51759974 -117.55359028 282.96621393 -126.29199219 294.37011719 C-128.51725072 297.28352289 -130.71674988 300.21488433 -132.91015625 303.15234375 C-144.70348882 318.92145889 -156.91978544 334.3524505 -169.36914062 349.60693359 C-171.03833262 351.65624346 -172.70170735 353.71013508 -174.36328125 355.765625 C-179.88913578 362.59748678 -185.45751752 369.38366679 -191.1550293 376.07324219 C-193.96891456 379.3798271 -196.73588219 382.71923872 -199.47265625 386.08984375 C-203.42856401 390.95157654 -207.49595724 395.70822927 -211.58911133 400.45410156 C-214.67230586 404.03699471 -217.69034927 407.66169058 -220.66015625 411.33984375 C-224.46541603 416.03116583 -228.49105316 420.4756183 -232.58203125 424.91796875 C-234.91231893 427.51542317 -237.10762793 430.17640089 -239.28515625 432.90234375 C-244.16595271 438.95557352 -249.4827657 444.56064675 -254.8125 450.21484375 C-257.70833279 453.29006441 -260.51037221 456.43113901 -263.265625 459.6328125 C-266.11733803 462.88741656 -269.06403415 466.05530816 -271.99560547 469.23779297 C-274.48671656 471.94722807 -276.94691507 474.67512172 -279.34765625 477.46484375 C-283.32355902 482.05095702 -287.49284815 486.4557283 -291.64208984 490.88427734 C-295.27676643 494.76452722 -298.88853346 498.66284523 -302.47265625 502.58984375 C-320.12400195 521.88621131 -320.12400195 521.88621131 -329.21948242 530.80371094 C-330.93393802 532.54928816 -332.51668105 534.34857979 -334.09765625 536.21484375 C-339.49668161 542.42515123 -345.44044343 548.10140339 -351.296875 553.875 C-352.19019531 554.76058594 -353.08351563 555.64617188 -354.00390625 556.55859375 C-355.20176758 557.73905273 -355.20176758 557.73905273 -356.42382812 558.94335938 C-358.41626567 561.01030842 -360.28912239 563.09095147 -362.15454102 565.26733398 C-366.89762183 570.73031462 -372.03790328 575.79939739 -377.15625 580.90625 C-378.22581789 581.97649342 -379.29523746 583.04688509 -380.36451721 584.11741638 C-382.59433849 586.34870288 -384.82593465 588.57819432 -387.05883789 590.80639648 C-389.90080057 593.64266263 -392.73824867 596.48339606 -395.57437038 599.32550144 C-397.77833851 601.53310708 -399.98471244 603.73829596 -402.19178963 605.94279289 C-403.23816074 606.98850354 -404.28380799 608.0349391 -405.32867241 609.08215523 C-410.51695256 614.27955184 -415.7404999 619.37702722 -421.31898499 624.15855408 C-423.77559741 626.29683849 -426.06145598 628.58414379 -428.34765625 630.90234375 C-428.80567627 631.36415039 -429.26369629 631.82595703 -429.7355957 632.30175781 C-431.171318 633.74947097 -432.60368057 635.20043232 -434.03515625 636.65234375 C-439.64533564 642.34261408 -445.25103804 647.96964589 -451.328125 653.16796875 C-453.68327932 655.21592903 -455.85865374 657.41701685 -458.03515625 659.65234375 C-461.59875608 663.25953502 -465.25440481 666.64712264 -469.10546875 669.94140625 C-471.79432173 672.32544999 -474.2899317 674.88050403 -476.78515625 677.46484375 C-478.73714359 679.36260922 -480.73031944 681.14965827 -482.78515625 682.93359375 C-486.97059996 686.56872912 -491.0110088 690.3404072 -495.03515625 694.15234375 C-499.66426527 698.5373396 -504.34503064 702.83335287 -509.16015625 707.01367188 C-511.82971045 709.34675101 -514.43103565 711.74636276 -517.03515625 714.15234375 C-520.99357917 717.79816166 -524.98646098 721.39496847 -529.0546875 724.91796875 C-531.3464878 726.92498913 -533.59512377 728.97637226 -535.84765625 731.02734375 C-539.2889383 734.13763226 -542.79836923 737.11712687 -546.41015625 740.02734375 C-550.42341909 743.27186892 -554.25931009 746.63981558 -558.03515625 750.15234375 C-562.56774495 754.36506181 -567.24440135 758.33263477 -572.0625 762.21484375 C-575.56834626 765.08954554 -578.99174414 768.04969489 -582.41015625 771.02734375 C-591.53904851 778.97230387 -600.7036877 786.85484918 -610.19140625 794.37109375 C-613.92169093 797.36351993 -617.60070727 800.41629159 -621.28515625 803.46484375 C-628.22513356 809.19823302 -635.24798557 814.80946773 -642.35107422 820.33886719 C-644.59776593 822.09114341 -646.83583456 823.85425418 -649.07397461 825.61743164 C-652.05759856 827.96678541 -655.04631403 830.3096346 -658.03515625 832.65234375 C-659.04787598 833.44680908 -659.04787598 833.44680908 -660.08105469 834.25732422 C-671.94350699 843.55455515 -683.93943814 852.6609411 -696.03515625 861.65234375 C-696.84662109 862.2561084 -697.65808594 862.85987305 -698.49414062 863.48193359 C-708.79137522 871.13455714 -719.16677035 878.66168508 -729.68457031 886.00830078 C-732.26085912 887.81020448 -734.8314709 889.62006603 -737.40234375 891.4296875 C-750.75745023 900.80438561 -764.30160488 909.84232913 -778.03515625 918.65234375 C-778.85967285 919.18311523 -779.68418945 919.71388672 -780.53369141 920.26074219 C-907.9336241 1002.14771747 -907.9336241 1002.14771747 -961 990.921875 C-970.5216078 988.24971703 -976.55969161 984.47236746 -981.75 976.015625 C-991.73753141 957.64949582 -986.30067531 933.77289617 -980.70288086 914.79223633 C-961.2754554 852.47666373 -923.00900354 795.73177074 -886.03515625 742.65234375 C-885.33640381 741.64856689 -885.33640381 741.64856689 -884.62353516 740.62451172 C-877.19466748 729.97487692 -869.54866393 719.49549406 -861.81738281 709.06396484 C-860.04658394 706.66780714 -858.28544453 704.26486131 -856.52734375 701.859375 C-849.11899602 691.73270006 -841.53416673 681.7665409 -833.78955078 671.89501953 C-832.01863225 669.63122081 -830.2577841 667.35994635 -828.5 665.0859375 C-822.33539001 657.11497323 -816.10213982 649.21274504 -809.72070312 641.4140625 C-806.24566067 637.16254536 -802.84144801 632.86333416 -799.47265625 628.52734375 C-795.25700068 623.11357875 -790.86483891 617.87853817 -786.37475586 612.69091797 C-783.37229666 609.22095457 -780.42617536 605.7165424 -777.53515625 602.15234375 C-773.60304191 597.30843478 -769.55529399 592.57429422 -765.48095703 587.8503418 C-762.39787743 584.26750256 -759.37989072 580.64290711 -756.41015625 576.96484375 C-752.60606257 572.2749593 -748.58163954 567.83185786 -744.4921875 563.390625 C-742.14139492 560.77074329 -739.92265166 558.08682156 -737.72265625 555.33984375 C-733.09094607 549.59751035 -728.08692162 544.25170075 -723.04296875 538.875 C-720.19039215 535.83172434 -717.42589415 532.72290241 -714.69921875 529.56640625 C-711.20221192 525.5440275 -707.60592879 521.60914575 -704.03515625 517.65234375 C-703.31328125 516.84796875 -702.59140625 516.04359375 -701.84765625 515.21484375 C-696.4159365 509.16235603 -690.9313404 503.15973714 -685.42919922 497.17138672 C-684.07838122 495.69944459 -682.73054652 494.22476639 -681.3828125 492.75 C-674.60316075 485.33320037 -667.7612284 477.9764035 -660.89404297 470.640625 C-658.99148089 468.60562821 -657.09311794 466.56677646 -655.1953125 464.52734375 C-648.78316519 457.64767785 -642.33416041 450.84111704 -635.59765625 444.27734375 C-633.60919794 442.24038645 -631.75870951 440.18977441 -629.91014099 438.0315094 C-625.94562057 433.48661821 -621.74179083 429.21830913 -617.47290039 424.96069336 C-616.23243202 423.71759651 -616.23243202 423.71759651 -614.96690369 422.4493866 C-612.25386972 419.73197956 -609.53722748 417.01821381 -606.8203125 414.3046875 C-604.92119472 412.40489537 -603.02222517 410.50495599 -601.12339783 408.60487366 C-597.15184963 404.63151267 -593.17821273 400.66024972 -589.20336914 396.69018555 C-584.62594978 392.11820708 -580.05214365 387.54263766 -575.48019701 382.96518701 C-571.53531713 379.01575053 -567.5884686 375.06828934 -563.64000601 371.12243468 C-561.29026778 368.77424526 -558.94138712 366.42521087 -556.59388924 364.07478142 C-553.97394787 361.45228622 -551.35079752 358.83304217 -548.72680664 356.21459961 C-547.96240265 355.44817139 -547.19799866 354.68174316 -546.41043091 353.89208984 C-542.34302983 349.84051952 -538.1936897 345.95311011 -533.82749081 342.22437382 C-530.74462226 339.52043552 -527.90227307 336.58113645 -525.03515625 333.65234375 C-520.76416488 329.33143907 -516.46352627 325.15126134 -511.82421875 321.22265625 C-509.17374702 318.89625967 -506.73373647 316.37587326 -504.28515625 313.83984375 C-502.34079501 311.94949255 -500.35603508 310.1706552 -498.30859375 308.39453125 C-493.98129119 304.63592556 -489.81570739 300.72385837 -485.66015625 296.77734375 C-480.30770162 291.71649404 -474.92998352 286.69747946 -469.4296875 281.796875 C-466.56620048 279.2323491 -463.7382751 276.63072306 -460.91015625 274.02734375 C-456.99209442 270.42494638 -453.03917837 266.87103301 -449.015625 263.38671875 C-446.7238247 261.37969837 -444.47518873 259.32831524 -442.22265625 257.27734375 C-438.80286297 254.18597574 -435.31557101 251.22775343 -431.72265625 248.33984375 C-427.5011925 244.92813891 -423.49421558 241.35936747 -419.53515625 237.65234375 C-414.72966955 233.15277663 -409.78354908 228.92131339 -404.6484375 224.796875 C-402.03668002 222.65359419 -399.53150323 220.42854045 -397.03515625 218.15234375 C-392.78863939 214.2870103 -388.40502515 210.63836129 -383.94140625 207.02734375 C-380.83123084 204.48569503 -377.77610377 201.88644458 -374.72265625 199.27734375 C-369.67308804 194.97276916 -364.50518338 190.84885897 -359.26635742 186.77783203 C-355.27302105 183.66127058 -351.38265418 180.44677482 -347.53515625 177.15234375 C-340.85873689 171.44597656 -333.97276605 166.03602684 -327.03515625 160.65234375 C-325.61700398 159.54841279 -324.19904275 158.4442364 -322.78125 157.33984375 C-319.74669243 154.97671034 -316.70993487 152.61644122 -313.671875 150.2578125 C-310.62695596 147.89280823 -307.58819305 145.52024896 -304.5546875 143.140625 C-293.86583799 134.76667757 -283.01525268 126.6401474 -272.03515625 118.65234375 C-270.88998535 117.81872314 -270.88998535 117.81872314 -269.72167969 116.96826172 C-259.67289409 109.66219844 -249.56649385 102.43955527 -239.39306641 95.30810547 C-237.74508449 94.15086656 -236.0990829 92.99080469 -234.45458984 91.82861328 C-219.58808154 81.32252045 -204.45186679 71.3317853 -189.03515625 61.65234375 C-188.09865234 61.06291992 -187.16214844 60.47349609 -186.19726562 59.86621094 C-41.75812266 -30.88439813 -41.75812266 -30.88439813 0 0 Z " fill="#0055CD" transform="translate(3352.03515625,2372.34765625)"/>
<path d="M0 0 C1.07314453 -0.02900391 2.14628906 -0.05800781 3.25195312 -0.08789062 C14.08578286 -0.17309316 23.91981958 2.59290468 31.8125 10.3125 C40.060343 19.57257828 41.40386517 31.32805381 41.0859375 43.3359375 C37.94602814 88.99919081 12.74027342 134.14710532 -10.58935547 172.66748047 C-12.13023732 175.21772703 -13.64871777 177.77987397 -15.16015625 180.34765625 C-27.05954393 200.49907143 -39.80768667 220.11572633 -53.1875 239.3125 C-53.75178711 240.12525391 -54.31607422 240.93800781 -54.89746094 241.77539062 C-63.19189657 253.71974802 -71.61519663 265.56601826 -80.1875 277.3125 C-80.7546875 278.08980469 -81.321875 278.86710937 -81.90625 279.66796875 C-89.71013891 290.34605782 -97.64066491 300.91864901 -105.71191406 311.39599609 C-107.0893774 313.1850575 -108.46338885 314.97669802 -109.8359375 316.76953125 C-119.10475929 328.8683345 -128.55274899 340.80856489 -138.18359375 352.62109375 C-140.61866179 355.60893058 -143.03487413 358.61097033 -145.4375 361.625 C-151.8691449 369.68134017 -158.42738891 377.62338688 -165.10302734 385.47802734 C-167.98257741 388.87146016 -170.81932472 392.29490983 -173.625 395.75 C-178.52322239 401.76383177 -183.57663246 407.63883404 -188.63916016 413.51416016 C-190.66128036 415.86277848 -192.67811574 418.21589651 -194.69433594 420.56958008 C-195.69065152 421.73254557 -196.6873972 422.89514274 -197.68457031 424.05737305 C-200.20370598 426.9937662 -202.71775702 429.93426188 -205.22265625 432.8828125 C-210.93426783 439.5955419 -216.75384444 446.17789434 -222.73828125 452.6484375 C-224.75623779 454.84340777 -226.73553445 457.0591621 -228.6875 459.3125 C-232.09494919 463.24417214 -235.61879673 467.06611244 -239.14282227 470.89282227 C-241.67490116 473.64723428 -244.17785268 476.41992499 -246.625 479.25 C-251.17724946 484.49758112 -255.93342019 489.559026 -260.65429688 494.65429688 C-263.00731454 497.19915292 -265.3475566 499.75562789 -267.6875 502.3125 C-269.04599704 503.79496729 -270.40478727 505.2771653 -271.76367188 506.75927734 C-272.74964437 507.83485297 -273.73530029 508.91071885 -274.72070312 509.98681641 C-279.92943466 515.67156275 -285.13488796 521.33350914 -290.640625 526.734375 C-292.26094555 528.3874293 -293.75227115 530.11034918 -295.25 531.875 C-299.23435687 536.50986412 -303.58473496 540.76455279 -307.94946289 545.03735352 C-310.8829989 547.92803411 -313.69589742 550.85936388 -316.37110901 553.9919281 C-320.31361109 558.51955829 -324.50033927 562.76595703 -328.74975586 567.00415039 C-329.57673477 567.83288162 -330.40371368 568.66161285 -331.25575256 569.51545715 C-333.96878653 572.23286419 -336.68542877 574.94662994 -339.40234375 577.66015625 C-341.30146153 579.55994838 -343.20043108 581.45988776 -345.09925842 583.35997009 C-349.07080662 587.33333108 -353.04444352 591.30459403 -357.01928711 595.2746582 C-361.59670647 599.84663667 -366.1705126 604.42220609 -370.74245924 608.99965674 C-374.68733912 612.94909322 -378.63418765 616.89655441 -382.58265024 620.84240907 C-384.93238847 623.19059849 -387.28126913 625.53963288 -389.62876701 627.89006233 C-392.24870838 630.51255753 -394.87185873 633.13180158 -397.49584961 635.75024414 C-398.2602536 636.51667236 -399.02465759 637.28310059 -399.81222534 638.07275391 C-403.87962642 642.12432423 -408.02896655 646.01173364 -412.39516544 649.74046993 C-415.47803399 652.44440823 -418.32038318 655.3837073 -421.1875 658.3125 C-425.45849137 662.63340468 -429.75912998 666.81358241 -434.3984375 670.7421875 C-437.04890923 673.06858408 -439.48891978 675.58897049 -441.9375 678.125 C-443.88186124 680.0153512 -445.86662117 681.79418855 -447.9140625 683.5703125 C-452.24136506 687.32891819 -456.40694886 691.24098538 -460.5625 695.1875 C-465.91495463 700.24834971 -471.29267273 705.26736429 -476.79296875 710.16796875 C-479.65645577 712.73249465 -482.48438115 715.33412069 -485.3125 717.9375 C-489.23056183 721.53989737 -493.18347788 725.09381074 -497.20703125 728.578125 C-499.49883155 730.58514538 -501.74746752 732.63652851 -504 734.6875 C-507.41979328 737.77886801 -510.90708524 740.73709032 -514.5 743.625 C-518.72148655 747.03672326 -522.72823342 750.60567966 -526.6875 754.3125 C-531.39428031 758.71541702 -536.22411423 762.87045446 -541.25 766.91015625 C-544.74693539 769.77001697 -548.15654074 772.72040626 -551.5625 775.6875 C-561.17659534 784.04963996 -570.81984056 792.30334583 -580.88696289 800.11767578 C-585.09192287 803.400929 -589.15898702 806.81575749 -593.1875 810.3125 C-599.45163333 815.74368802 -605.90232064 820.88968824 -612.45507812 825.96679688 C-614.72258291 827.72813937 -616.97790225 829.50468616 -619.23291016 831.28198242 C-622.21378981 833.6305672 -625.20072941 835.97141463 -628.1875 838.3125 C-629.20021973 839.10696533 -629.20021973 839.10696533 -630.23339844 839.91748047 C-642.09585074 849.2147114 -654.09178189 858.32109735 -666.1875 867.3125 C-666.99896484 867.91626465 -667.81042969 868.5200293 -668.64648438 869.14208984 C-679.03310394 876.86114186 -689.51253812 884.43021019 -700.11230469 891.85351562 C-702.17735547 893.3053678 -704.23432827 894.76796629 -706.2890625 896.234375 C-717.42708135 904.17261557 -728.76113521 911.79609441 -740.1875 919.3125 C-740.93 919.80105469 -741.6725 920.28960938 -742.4375 920.79296875 C-875.87823016 1008.36344791 -875.87823016 1008.36344791 -931.1875 998.1875 C-940.47185144 996.01778744 -947.59760262 992.33645827 -953.0078125 984.328125 C-961.76805055 969.36030105 -959.68940587 948.44217805 -955.56640625 932.1953125 C-945.29698314 894.95622796 -927.58080041 859.89641976 -907.73193359 826.89306641 C-906.32833771 824.5478232 -904.94852741 822.19121386 -903.58203125 819.82421875 C-886.5150342 790.27749708 -866.95000359 762.10695379 -847.1875 734.3125 C-846.66317383 733.57354492 -846.13884766 732.83458984 -845.59863281 732.07324219 C-837.96391391 721.33589351 -830.05935482 710.82098388 -822.046875 700.36328125 C-818.62256798 695.89190701 -815.24152976 691.38994097 -811.875 686.875 C-803.84478336 676.13321204 -795.5010285 665.66066996 -787.02148438 655.27124023 C-783.54845982 651.0095925 -780.12957362 646.71099793 -776.75 642.375 C-768.10996683 631.30972222 -759.11144341 620.53094614 -750.01513672 609.83911133 C-747.23864911 606.57154079 -744.51192077 603.26890857 -741.8125 599.9375 C-737.17130567 594.23735224 -732.35476107 588.69829373 -727.52734375 583.15625 C-724.30695435 579.45762201 -721.12037356 575.73090447 -717.9375 572 C-714.51323395 567.98890744 -711.05022725 564.02594294 -707.5 560.125 C-704.56507249 556.89710289 -701.78333974 553.59741647 -699.0625 550.1875 C-694.53504877 544.58398201 -689.64399907 539.36309067 -684.67919922 534.14599609 C-680.97322411 530.2476048 -677.37818458 526.27913576 -673.85302734 522.21655273 C-671.39418884 519.40557626 -668.85723878 516.67054773 -666.3125 513.9375 C-662.78184625 510.13062 -659.27168658 506.30972379 -655.8125 502.4375 C-650.31483215 496.30586685 -644.67406698 490.30894296 -639.04443359 484.29882812 C-637.17774341 482.30206355 -635.31657956 480.30029081 -633.45703125 478.296875 C-628.07064598 472.49813487 -622.68327132 466.73282494 -617.03173828 461.18969727 C-615.31587949 459.4431738 -613.73283777 457.64597341 -612.15234375 455.77734375 C-606.99187572 449.84072166 -601.32793277 444.3946559 -595.73046875 438.87597656 C-594.29730594 437.46116287 -592.86736733 436.04314302 -591.4375 434.625 C-590.17679688 433.38169922 -590.17679688 433.38169922 -588.890625 432.11328125 C-586.85696874 430.00615475 -584.94386456 427.88930284 -583.04077148 425.67016602 C-578.37469132 420.29343203 -573.32180376 415.30243051 -568.28515625 410.27734375 C-567.23800864 409.22952054 -566.19100934 408.1815491 -565.14414978 407.13343811 C-562.96140674 404.94923012 -560.77688975 402.76681668 -558.59106445 400.58569336 C-555.80963576 397.80996119 -553.03272224 395.02976218 -550.25713444 392.24819088 C-548.09948979 390.08690797 -545.93943853 387.92804286 -543.77868462 385.76986885 C-542.7546423 384.74648679 -541.73132326 383.72238039 -540.70878792 382.6974926 C-535.58464093 377.56414221 -530.4197006 372.53783558 -524.91136169 367.8139801 C-522.45272427 365.6725118 -520.16375671 363.38329219 -517.875 361.0625 C-517.41697998 360.60069336 -516.95895996 360.13888672 -516.48706055 359.66308594 C-515.05133825 358.21537278 -513.61897568 356.76441143 -512.1875 355.3125 C-506.57732061 349.62222967 -500.97161821 343.99519786 -494.89453125 338.796875 C-492.53937693 336.74891472 -490.36400251 334.5478269 -488.1875 332.3125 C-484.62390017 328.70530873 -480.96825144 325.31772111 -477.1171875 322.0234375 C-474.42833452 319.63939376 -471.93272455 317.08433972 -469.4375 314.5 C-467.48551266 312.60223453 -465.49233681 310.81518548 -463.4375 309.03125 C-459.25205629 305.39611463 -455.21164745 301.62443655 -451.1875 297.8125 C-446.55839098 293.42750415 -441.87762561 289.13149088 -437.0625 284.95117188 C-434.3929458 282.61809274 -431.7916206 280.21848099 -429.1875 277.8125 C-425.22907708 274.16668209 -421.23619527 270.56987528 -417.16796875 267.046875 C-414.87616845 265.03985462 -412.62753248 262.98847149 -410.375 260.9375 C-406.93371795 257.82721149 -403.42428702 254.84771688 -399.8125 251.9375 C-395.79923716 248.69297483 -391.96334616 245.32502817 -388.1875 241.8125 C-383.6549113 237.59978194 -378.9782549 233.63220898 -374.16015625 229.75 C-370.65430498 226.8752941 -367.23101902 223.9150318 -363.8125 220.9375 C-354.17411587 212.55439255 -344.50544728 204.27729721 -334.41772461 196.43701172 C-330.42451991 193.3210391 -326.53447998 190.10682019 -322.6875 186.8125 C-317.16846668 182.09110677 -311.5065943 177.58374565 -305.77734375 173.12109375 C-302.73917454 170.75273101 -299.73164024 168.3485758 -296.73144531 165.93237305 C-288.77122255 159.52253033 -280.68572717 153.29034967 -272.54736328 147.10888672 C-270.00490967 145.17350769 -267.46886802 143.22992924 -264.93359375 141.28515625 C-255.71976407 134.22512257 -246.46345114 127.2668633 -236.97460938 120.58154297 C-234.29486156 118.67862915 -231.63988213 116.74202801 -228.98193359 114.80883789 C-184.22606426 82.29694462 -137.6504894 52.17600664 -88.1875 27.3125 C-87.20185059 26.81234375 -86.21620117 26.3121875 -85.20068359 25.796875 C-58.78729456 12.45342809 -29.98601311 0.26536295 0 0 Z " fill="#0055CD" transform="translate(1209.1875,250.6875)"/>
</svg>
